<svg xmlns="http://www.w3.org/2000/svg" xmlns:xlink="http://www.w3.org/1999/xlink" width="572.48" height="931.537" viewBox="0 0 572.48 931.537">
  <defs>
    <linearGradient id="linear-gradient" x1="1.2" y1="0.5" x2="-0.2" y2="0.5" gradientUnits="objectBoundingBox">
      <stop offset="0" stop-color="#8ce1fe"/>
      <stop offset="0.549" stop-color="#6bc2ff"/>
      <stop offset="1" stop-color="#0f50bf"/>
    </linearGradient>
    <linearGradient id="linear-gradient-2" x1="1" y1="0.5" x2="0" y2="0.5" gradientUnits="objectBoundingBox">
      <stop offset="0" stop-color="#51a9ff"/>
      <stop offset="0.522" stop-color="#307ddf"/>
      <stop offset="1" stop-color="#0f50bf"/>
    </linearGradient>
  </defs>
  <g id="Layer_x0020_1" transform="translate(-3076.28 -3467.17)">
    <path id="Path_3062" data-name="Path 3062" d="M3076.28,5453.082l179.535-179.535-179.528-179.528,106.569-106.568,179.662,179.669,179.676-179.669,106.566,106.568-179.534,179.537,179.529,179.526-106.7,106.7-179.528-179.527-179.535,179.534Z" transform="translate(0 -1340.613)" fill-rule="evenodd" fill="url(#linear-gradient)"/>
    <path id="Path_3063" data-name="Path 3063" d="M4080.31,3634.756,4247.9,3467.17l167.585,167.586-89.909,89.914-77.676-77.677-77.678,77.677Z" transform="translate(-885.373)" fill-rule="evenodd" fill="url(#linear-gradient-2)"/>
    <path id="Path_3064" data-name="Path 3064" d="M4080.31,9260.54,4247.9,9428.129l167.585-167.589-89.909-89.91-77.676,77.676-77.678-77.676Z" transform="translate(-885.373 -5029.422)" fill-rule="evenodd" fill="url(#linear-gradient-2)"/>
  </g>
</svg>
