<?xml version="1.0" encoding="UTF-8"?>
<!DOCTYPE svg PUBLIC "-//W3C//DTD SVG 1.1//EN" "http://www.w3.org/Graphics/SVG/1.1/DTD/svg11.dtd">
<!-- Creator: CorelDRAW 2019 (64-Bit) -->
<svg xmlns="http://www.w3.org/2000/svg" xml:space="preserve" width="110mm" height="160mm" version="1.1" style="shape-rendering:geometricPrecision; text-rendering:geometricPrecision; image-rendering:optimizeQuality; fill-rule:evenodd; clip-rule:evenodd"
viewBox="0 0 11000 16000"
 xmlns:xlink="http://www.w3.org/1999/xlink">
 <defs>
  <style type="text/css">
   <![CDATA[
    .fil2 {fill:white}
    .fil0 {fill:#BBBDBF;fill-rule:nonzero}
    .fil3 {fill:url(#id0)}
    .fil1 {fill:url(#id1)}
    .fil4 {fill:url(#id2);fill-rule:nonzero}
   ]]>
  </style>
  <linearGradient id="id0" gradientUnits="userSpaceOnUse" x1="2147.59" y1="6542.24" x2="2415.89" y2="8125.92">
   <stop offset="0" style="stop-opacity:1; stop-color:#BBBDBF"/>
   <stop offset="0.54902" style="stop-opacity:1; stop-color:#929395"/>
   <stop offset="1" style="stop-opacity:1; stop-color:#68696A"/>
  </linearGradient>
  <linearGradient id="id1" gradientUnits="userSpaceOnUse" x1="8176.52" y1="12249.23" x2="5408.48" y2="10860.43">
   <stop offset="0" style="stop-opacity:1; stop-color:#C2C2C2"/>
   <stop offset="0.690196" style="stop-opacity:1; stop-color:#959696"/>
   <stop offset="1" style="stop-opacity:1; stop-color:#68696A"/>
  </linearGradient>
  <linearGradient id="id2" gradientUnits="userSpaceOnUse" x1="-1723.79" y1="-1696.37" x2="9641.15" y2="16444.65">
   <stop offset="0" style="stop-opacity:1; stop-color:#BBBDBF"/>
   <stop offset="0.670588" style="stop-opacity:1; stop-color:#DDDEDF"/>
   <stop offset="1" style="stop-opacity:1; stop-color:white"/>
  </linearGradient>
 </defs>
 <g id="Layer_x0020_1">
  <metadata id="CorelCorpID_0Corel-Layer"/>
  <g id="_2172179597040">
   <path class="fil0" d="M8515.55 6158.94l1971.21 4196.08c19.42,43.62 9.73,96.93 -24.25,130.85l-5185.37 5010.16c-38.88,33.87 -97.11,9.69 -97.11,-43.62l0 -4603.14 3267.54 -3154.35c24.3,-19.38 33.98,-53.33 33.98,-82.39l9.7 -1453.59c0,-9.69 19.43,-9.69 24.3,0z"/>
   <path class="fil1" d="M5180 10849.3l0 4603.14c0,53.23 58.29,77.49 97.1,43.56l0 0 5185.38 -5010.1c34.05,-33.93 43.68,-87.23 24.31,-130.84l0 0 -2024.46 -2675.91 -3282.33 3170.15z"/>
   <path class="fil2" d="M8502.02 6146.52l-0.23 0 -0.24 0 -0.28 0c-6.01,0.13 -11.7,3.77 -11.7,11.63l0 0 -8.22 1453.37c0,19.38 -4.46,48.24 -19.02,67.63l2032.43 2742.93c4.88,-24.28 0,-48.49 -9.74,-72.73l-101.97 -217.96 -1.05 -1.34 -1868.19 -3976.78c-2.11,-4.21 -6.95,-6.59 -11.79,-6.75l0 0zm1983 4202.83l0 0z"/>
   <path class="fil0" d="M3854.52 2636.34l-927.36 2626.19c-9.68,29.12 -9.68,62.99 4.88,92.05l864.26 1700.75 -2379.1 1347.05c-29.12,14.49 -67.97,4.82 -82.54,-24.24l-514.67 -1070.85c-19.44,-38.73 -14.56,-77.53 9.76,-111.42l3000.48 -4574.08c9.75,-9.68 29.17,0 24.29,14.55z"/>
   <path class="fil2" d="M3840.34 2617.92l-0.91 0c-3.33,0.1 -6.63,1.32 -9.18,3.87l0 0 -2872.33 4378.61 -3.24 5.75 1972.5 -1743.61 -1973.79 1744.79 -122.16 186.21 2095.95 -1931 6.22 -17.67c0,-0.06 0,-0.06 0.07,-0.06l0 0 0.41 -1.23 920.68 -2607.24c3.41,-10.33 -5.36,-18.16 -14.22,-18.42z"/>
   <path class="fil3" d="M829.71 7195.89c-24.24,33.87 -29.12,72.62 -9.7,111.43l0 0 514.62 1070.83c14.61,29.06 53.41,38.75 82.61,24.17l0 0 2379.03 -1346.99 -864.22 -1700.68c-14.61,-29.12 -14.61,-63.05 -4.87,-92.11l-2097.47 1933.35z"/>
   <path class="fil4" d="M5180 514.04l0 4084.65c0,24.25 -9.75,48.5 -24.24,67.89l0 0 -4636.78 6284.46c-34,43.61 -29.13,111.41 14.55,150.21l0 0 3253.05 3139.8c29.1,29.06 77.66,19.37 92.22,-19.37l0 0 3534.59 -8271.05c9.74,-24.31 9.74,-58.17 0,-87.24l0 0 -2189.71 -5358.97c-3.88,-9.81 -11.79,-14.09 -19.78,-14.09l0 0c-11.8,0 -23.9,9.27 -23.9,23.71z"/>
   <path class="fil2" d="M5202.81 490.33l-0.37 0c-11.87,0 -23.9,9.27 -23.9,23.71l1.46 4084.65c0,9.75 -2.3,22.74 -6.04,33.94l423.61 242.29 1823.44 1033.84 0 -0.69c-0.06,-14.31 -2.07,-28.05 -6.85,-42.38l0 0 -28.08 -69.22 -1.92 -1.01 -2161.96 -5291.04c-3.87,-9.66 -11.55,-13.96 -19.39,-14.09zm-28.85 4142.3l422.08 242.29 -422.08 -242.29z"/>
  </g>
 </g>
</svg>
