<?xml version="1.0" encoding="UTF-8"?>
<!DOCTYPE svg PUBLIC "-//W3C//DTD SVG 1.1//EN" "http://www.w3.org/Graphics/SVG/1.1/DTD/svg11.dtd">
<!-- Creator: CorelDRAW 2019 (64-Bit) -->
<svg xmlns="http://www.w3.org/2000/svg" xml:space="preserve" width="110mm" height="160mm" version="1.1" style="shape-rendering:geometricPrecision; text-rendering:geometricPrecision; image-rendering:optimizeQuality; fill-rule:evenodd; clip-rule:evenodd"
viewBox="0 0 11000 16000"
 xmlns:xlink="http://www.w3.org/1999/xlink">
 <defs>
  <style type="text/css">
   <![CDATA[
    .fil1 {fill:#ABAEAF;fill-rule:nonzero}
    .fil0 {fill:#BBBDBF;fill-rule:nonzero}
    .fil2 {fill:#E5E6E7;fill-rule:nonzero}
    .fil3 {fill:url(#id0);fill-rule:nonzero}
   ]]>
  </style>
  <linearGradient id="id0" gradientUnits="userSpaceOnUse" x1="-1736.95" y1="-1688.36" x2="9654.62" y2="16437.75">
   <stop offset="0" style="stop-opacity:1; stop-color:#BBBDBF"/>
   <stop offset="0.670588" style="stop-opacity:1; stop-color:#DDDEDF"/>
   <stop offset="1" style="stop-opacity:1; stop-color:white"/>
  </linearGradient>
 </defs>
 <g id="Layer_x0020_1">
  <metadata id="CorelCorpID_0Corel-Layer"/>
  <g id="_2171347963424">
   <path class="fil0" d="M3855.01 2634.73l-927.22 2630.74c-10.56,29.79 -8.35,62.63 5.98,90.8l865.98 1701.02 -2379.56 1348.11c-29.17,16.59 -66.29,4.97 -80.81,-25.3l-514.61 -1071.13c-17.55,-36.51 -14.66,-79.6 7.58,-113.43l3002.02 -4571.01c7.53,-11.41 25.14,-2.68 20.64,10.2z"/>
   <path class="fil0" d="M8514.68 6158.75l1971 4198.26c21.03,44.76 11.22,97.92 -24.34,132.28l-5182.48 5005.96c-36.76,35.52 -98.26,9.48 -98.26,-41.6l0 -4602.42 3267.6 -3152.76c22.37,-21.61 35.16,-51.33 35.35,-82.47l9.01 -1452.42c0.07,-12.35 16.86,-16.04 22.12,-4.83z"/>
   <path class="fil1" d="M3799.54 7056.93l-2827.68 558.23 367.51 765c14.51,30.27 51.61,41.81 80.86,25.3l0 0 2379.48 -1348.19 -0.17 -0.34z"/>
   <path class="fil2" d="M2921.44 5296.42l-2102.33 1926.54c3.14,-9.57 7.56,-18.8 13.22,-27.44l3002 -4571.01 0 0c2.5,-3.69 5.99,-5.29 9.49,-5.29l0 0c7.26,0 14.26,6.85 11.23,15.57l-927.3 2630.66 0 0c-3.54,10.08 -5.64,20.49 -6.31,30.97z"/>
   <polygon class="fil1" points="7069.87,9028.42 5180.67,13448.26 5180.67,10851.3 "/>
   <path class="fil2" d="M10494.42 10428.79l-2027.62 -2753.6c10.72,-17.7 16.63,-38.09 16.76,-59.13l9.02 -1452.48 0 0c0.05,-7.25 5.85,-11.47 11.7,-11.47l0 0c4.09,-0.08 8.19,2.07 10.4,6.64l1971.01 4198.26 0 0c10.79,22.94 13.46,48.09 8.73,71.78z"/>
   <path class="fil3" d="M5224.08 504.77l2188.33 5360.47c11.7,28.59 11.43,60.68 -0.74,89.07l-3534.81 8269.6c-15.85,37.25 -64.32,47.04 -93.55,18.85l-3251.33 -3140.6c-41.69,-40.27 -47.12,-105.17 -12.71,-151.81l4637.59 -6282.5c14.65,-19.91 22.59,-43.94 22.59,-68.65l0 -4085.7c0,-25.38 35.03,-32.21 44.63,-8.73z"/>
   <path class="fil2" d="M5174.23 4633.59l2246.64 1270.13c-0.59,-13.11 -3.41,-26.14 -8.44,-38.52l0 0 -2188.33 -5360.41c-4.1,-9.93 -12.63,-14.42 -21.25,-14.42l0 0c-11.7,0 -23.38,8.44 -23.38,23.15l0 0 0 4085.64c0,11.74 -1.77,23.34 -5.24,34.43z"/>
  </g>
 </g>
</svg>
