<?xml version="1.0" encoding="UTF-8"?>
<!DOCTYPE svg PUBLIC "-//W3C//DTD SVG 1.1//EN" "http://www.w3.org/Graphics/SVG/1.1/DTD/svg11.dtd">
<!-- Creator: CorelDRAW 2019 (64-Bit) -->
<svg xmlns="http://www.w3.org/2000/svg" xml:space="preserve" width="72.391mm" height="81.9809mm" version="1.1" style="shape-rendering:geometricPrecision; text-rendering:geometricPrecision; image-rendering:optimizeQuality; fill-rule:evenodd; clip-rule:evenodd"
viewBox="0 0 3566.43 4038.88"
 xmlns:xlink="http://www.w3.org/1999/xlink">
 <defs>
  <style type="text/css">
   <![CDATA[
    .fil0 {fill:#181A1F}
    .fil2 {fill:url(#id0)}
    .fil1 {fill:url(#id1)}
   ]]>
  </style>
  <linearGradient id="id0" gradientUnits="objectBoundingBox" x1="100%" y1="50%" x2="4.44089e-14%" y2="50%">
   <stop offset="0" style="stop-opacity:1; stop-color:#6000FF"/>
   <stop offset="0.65098" style="stop-opacity:1; stop-color:#4900C3"/>
   <stop offset="1" style="stop-opacity:1; stop-color:#320086"/>
  </linearGradient>
  <linearGradient id="id1" gradientUnits="userSpaceOnUse" x1="2375.96" y1="3060.77" x2="469.86" y2="1155.14">
   <stop offset="0" style="stop-opacity:1; stop-color:#AE60FF"/>
   <stop offset="0.321569" style="stop-opacity:1; stop-color:#AF50FF"/>
   <stop offset="1" style="stop-opacity:1; stop-color:#6000FF"/>
  </linearGradient>
 </defs>
 <g id="Layer_x0020_1">
  <metadata id="CorelCorpID_0Corel-Layer"/>
  <g id="_2583663391056">
   <path class="fil0" d="M516.69 3515.4l-59 -111.93 -266.86 0 -58.98 111.93 -131.86 0c89.79,-166.78 179.57,-333.56 269.45,-500.29l112.33 0 270.16 500.29 -135.24 0zm-192.47 -364.41l-80.07 151.01 159.63 0 -79.56 -151.01zm394.95 364.41l0 -500.29 121.36 0 213.88 299.18 211.95 -299.18 120.68 0 0 500.29 -116.9 0 0 -321.49 -168.79 241.73 -95.77 0 -169.52 -238.98 0 318.74 -116.88 0zm1172.7 0l-356.72 0 0 -500.29 346.67 0c51.58,0 93.66,12.31 123.16,35.03 30.43,23.45 47.22,57.37 47.22,99.82 0,28.03 -8.1,54.03 -24.29,75.62 -8.37,11.16 -18.86,21.06 -31.47,29.34 18.71,8.8 34.25,20.27 46.36,34.06 19.76,22.51 30.19,50.81 30.19,83.51 0,45.18 -17.05,81.36 -49.47,106.31 -30.82,23.7 -75.23,36.59 -131.64,36.59zm23.88 -388.48c-10.93,-8.58 -28.02,-13.02 -50.69,-13.02l-209 0 0 98.95 209.67 0c20.88,0 37.83,-4.97 49.1,-14.27 10.05,-8.29 15.79,-20.65 15.79,-36.55 0,-15.68 -5.12,-27.47 -14.87,-35.12zm14.63 200.03c-12.53,-9.71 -31.84,-14.64 -56.6,-14.64l-217.72 0 0 104.31 219.72 0c25.53,0 43.95,-4.73 55.61,-13.61 10.74,-8.17 15.99,-20.79 15.99,-37.21 0,-17.36 -6.01,-30.34 -17,-38.86zm255.85 188.45l0 -500.29 122.92 0 0 500.29 -122.92 0zm271.03 0l0 -500.29 324.55 0c58.6,0 104.49,15 136.24,42.39 33,28.47 50.23,69.61 50.23,120.62 0,46.18 -15.42,84.37 -44.53,112.05 -22.36,21.27 -52.61,35.99 -89.91,42.98l169.23 182.25 -156.98 0 -158.86 -172.26 -107.05 0 0 172.26 -122.92 0zm369.85 -382.02c-12.95,-10.66 -33.26,-16.12 -60.72,-16.12l-186.22 0 0 123.75 186.22 0c26.95,0 47.32,-5.55 60.47,-16.27 12.13,-9.89 18.49,-25.09 18.49,-45.27 0,-20.68 -6.15,-36.14 -18.25,-46.08zm260.46 382.02l0 -500.29 478.84 0 0 102.15 -357.93 0 0 92.24 315.7 0 0 101.47 -315.7 0 0 102.3 357.93 0 0 102.13 -478.84 0z"/>
   <path class="fil0" d="M1337.62 4038.88l-77.82 0 -42.04 -79.77 -190.18 0 -42.03 79.77 -93.95 0c63.97,-118.85 127.94,-237.71 192.01,-356.51l80.02 0 192.51 356.51 -18.53 0zm-214.98 -259.71l-57.07 107.65 113.78 0 -56.71 -107.65zm483.59 259.71l-202.13 0 0 -356.51 202.13 0c63.62,0 113.45,16.58 147.75,46.76 35.33,31.08 53.91,76.13 53.91,131.97 0,55.75 -18.53,100.5 -53.81,131.36 -34.33,30.03 -84.19,46.41 -147.85,46.41zm-114.55 -74.2l116.94 0c36.62,0 64.02,-9.27 82.09,-26.42 18.42,-17.47 27.69,-43.71 27.69,-77.15 0,-33.72 -9.28,-60.21 -27.72,-77.85 -18.06,-17.32 -45.44,-26.68 -82.06,-26.68l-116.94 0 0 208.1zm727.08 74.2l-330.15 0 0 -356.51 337.88 0 0 72.77 -251.73 0 0 65.76 224.98 0 0 72.29 -224.98 0 0 72.92 255.07 0 0 72.77 -11.07 0zm238.16 -123.15l-104.91 123.15 -107.1 0 157.56 -181.96 -155.15 -174.55 110.82 0 103.85 118.88 102.03 -118.88 107.41 0 -155.93 176.83 159.32 179.68 -110.25 0 -107.64 -123.15z"/>
  </g>
  <g id="_2583663395888">
   <polygon class="fil1" points="958.63,1858.94 1475.82,1341.74 958.65,824.57 1265.64,517.58 1783.2,1035.16 2300.8,517.58 2607.8,824.57 2090.6,1341.76 2607.78,1858.94 2300.39,2166.32 1783.22,1649.15 1266.03,2166.34 "/>
   <polygon class="fil2" points="1300.45,482.77 1783.22,0 2266,482.77 2006.98,741.79 1783.22,518.02 1559.46,741.79 "/>
   <polygon class="fil2" points="1300.45,2200.73 1783.22,2683.51 2266,2200.73 2006.98,1941.72 1783.22,2165.48 1559.46,1941.72 "/>
  </g>
 </g>
</svg>
