<svg xmlns="http://www.w3.org/2000/svg" xmlns:xlink="http://www.w3.org/1999/xlink" width="692.793" height="227.33" viewBox="0 0 692.793 227.33">
  <defs>
    <linearGradient id="linear-gradient" x1="0.686" y1="0.023" x2="0.48" y2="1" gradientUnits="objectBoundingBox">
      <stop offset="0"/>
      <stop offset="0.671" stop-color="#1e2033"/>
      <stop offset="1" stop-color="#34344e"/>
    </linearGradient>
  </defs>
  <g id="logo-hor-simplyfied-black" transform="translate(0.004 -0.006)">
    <path id="logotype" d="M407.392,201.184H392.047l-8.29-15.728h-37.5l-8.29,15.728H319.44l37.863-70.3h15.782q18.995,35.146,37.965,70.3ZM365,149.974l-11.253,21.217h22.429l-11.181-21.217Zm69.74,51.21H420.5v-70.3h17.054l30.053,42.044,29.783-42.044h16.958v70.3H497.923V156.008L474.2,189.979H460.744L436.923,156.4V201.19H434.74Zm150.554,0H535.163v-70.3h48.715c7.246,0,13.161,1.728,17.306,4.925a16.954,16.954,0,0,1,6.634,14.031,17.112,17.112,0,0,1-7.834,14.745,19.771,19.771,0,0,1,6.514,4.787A17.313,17.313,0,0,1,610.74,181.1c0,6.347-2.393,11.433-6.952,14.937-4.331,3.329-10.57,5.141-18.5,5.141Zm3.353-54.594c-1.536-1.206-3.935-1.83-7.12-1.83H552.157v13.9h29.465a10.75,10.75,0,0,0,6.9-2,6.378,6.378,0,0,0,2.219-5.135,5.938,5.938,0,0,0-2.088-4.937ZM590.7,174.7c-1.764-1.362-4.475-2.058-7.954-2.058H552.157V187.3h30.875c3.587,0,6.179-.666,7.816-1.914a6.186,6.186,0,0,0,2.243-5.231A6.522,6.522,0,0,0,590.7,174.7Zm51.042,26.484H626.66v-70.3h17.276v70.3h-2.183Zm38.085,0H664.745v-70.3h45.608c8.236,0,14.685,2.106,19.142,5.957,4.637,4,7.06,9.784,7.06,16.952,0,6.491-2.165,11.853-6.257,15.746a24.552,24.552,0,0,1-12.633,6.041l23.779,25.608H719.387l-22.321-24.2H682.021v24.2h-2.184ZM716.717,147.5c-1.818-1.5-4.673-2.267-8.53-2.267H682.021v17.39h26.166c3.785,0,6.653-.78,8.5-2.285,1.7-1.392,2.6-3.527,2.6-6.359,0-2.9-.864-5.081-2.561-6.479Zm101.707,53.682h-65.1v-70.3h66.627v14.355H770.309V158.2h44.366v14.259H770.309v14.373h50.3v14.355h-2.184Z" transform="translate(-127.818 -52.364)" fill="#1e2033" fill-rule="evenodd"/>
    <g id="symbol" transform="translate(-496.686 -490.349)">
      <g id="_2171347963424" transform="translate(496.683 490.354)">
        <path id="Path_5782" data-name="Path 5782" d="M859.412,2619.472l-14.032,39.813a1.744,1.744,0,0,0,.091,1.374l13.106,25.743-36.012,20.4a.877.877,0,0,1-1.223-.383l-7.788-16.21a1.748,1.748,0,0,1,.115-1.717l45.432-69.177A.176.176,0,0,1,859.412,2619.472Z" transform="translate(-808.588 -2587.02)" fill="#1e2033"/>
        <path id="Path_5783" data-name="Path 5783" d="M5231.059,6152.146l29.828,63.536a1.749,1.749,0,0,1-.367,2l-78.431,75.76a.878.878,0,0,1-1.488-.63v-69.652l49.452-47.713a1.753,1.753,0,0,0,.536-1.248l.136-21.982A.176.176,0,0,1,5231.059,6152.146Z" transform="translate(-5109.714 -6066.361)" fill="#1e2033"/>
        <path id="Path_5784" data-name="Path 5784" d="M1014.654,7056.929l-42.794,8.449,5.562,11.577a.877.877,0,0,0,1.224.383h0l36.011-20.4Z" transform="translate(-964.669 -6957.552)"/>
        <path id="Path_5785" data-name="Path 5785" d="M850.926,2659.737l-31.816,29.156a1.764,1.764,0,0,1,.2-.416l45.432-69.177h0a.171.171,0,0,1,.144-.08h0a.176.176,0,0,1,.17.236l-14.034,39.812h0A1.743,1.743,0,0,0,850.926,2659.737Z" transform="translate(-814.23 -2587.002)" fill="#34344e"/>
        <path id="Path_5786" data-name="Path 5786" d="M5209.262,9028.42l-28.592,66.89v-39.3Z" transform="translate(-5109.783 -8899.205)"/>
        <path id="Path_5787" data-name="Path 5787" d="M8497.466,6216.841l-30.686-41.672a1.743,1.743,0,0,0,.254-.9l.137-21.981h0a.173.173,0,0,1,.175-.174h0a.17.17,0,0,1,.159.1l29.828,63.537h0A1.741,1.741,0,0,1,8497.466,6216.841Z" transform="translate(-8346.162 -6066.433)" fill="#34344e"/>
        <path id="Path_5788" data-name="Path 5788" d="M568.226,490.573,601.344,571.7a1.744,1.744,0,0,1-.011,1.348L547.838,698.2a.877.877,0,0,1-1.416.285l-49.205-47.529a1.75,1.75,0,0,1-.192-2.3l70.185-95.079a1.752,1.752,0,0,0,.342-1.039V490.7A.351.351,0,0,1,568.226,490.573Z" transform="translate(-496.683 -490.354)" fill="url(#linear-gradient)"/>
        <path id="Path_5789" data-name="Path 5789" d="M5174.23,553.073l34,19.222a1.766,1.766,0,0,0-.128-.583h0l-33.118-81.124a.34.34,0,0,0-.322-.218h0a.344.344,0,0,0-.353.35h0v61.831A1.738,1.738,0,0,1,5174.23,553.073Z" transform="translate(-5103.44 -490.369)" fill="#34344e"/>
      </g>
    </g>
  </g>
</svg>
