<svg width="48" height="48" viewBox="0 0 48 48" fill="none" xmlns="http://www.w3.org/2000/svg">
<g clip-path="url(#clip0_8289_785)">
<rect width="48" height="48" rx="13" fill="#D7FF00"/>
<path d="M15.7168 29.8891C15.3663 29.8896 15.0193 29.8219 14.6954 29.6879C14.3715 29.554 14.0772 29.3557 13.8294 29.1079C13.5816 28.86 13.3853 28.5666 13.2515 28.2426C13.1177 27.9187 13.0492 27.5716 13.0498 27.2211V17.4008C13.1159 14.5598 14.3052 11.8611 16.3571 9.89498C18.4091 7.92887 21.1565 6.85533 23.9978 6.9106C26.8391 6.85533 29.5865 7.92887 31.6385 9.89498C33.6904 11.8611 34.8797 14.5598 34.9458 17.4008V27.2153C34.9457 27.6303 34.8478 28.0384 34.6602 28.4086C34.4726 28.7789 34.2005 29.1006 33.8658 29.3461C33.5342 29.6003 33.1462 29.7718 32.7347 29.8442C32.3232 29.9166 31.9003 29.8879 31.5018 29.7622L25.1728 27.8403C24.7866 27.7413 24.3881 27.6992 23.9898 27.7153C23.6031 27.7031 23.2164 27.7401 22.8388 27.8247L16.5008 29.7719C16.2464 29.8485 15.9824 29.8874 15.7168 29.8891ZM23.9958 12.2465C22.5695 12.1914 21.1793 12.7011 20.1279 13.6665C19.0766 14.6318 18.4493 15.975 18.3828 17.4008V23.6176L21.2628 22.727C22.1496 22.4819 23.0669 22.3632 23.9868 22.3774C24.911 22.3644 25.8323 22.4832 26.7238 22.727L29.6078 23.6176V17.4008C29.5413 15.9752 28.9142 14.6338 27.8631 13.6684C26.812 12.7031 25.4219 12.1917 23.9958 12.2465Z" fill="#1E2433"/>
<path d="M13.0498 25.3611V20.1241L18.3778 19.3921V23.6181L21.2648 22.7271C22.1503 22.4843 23.0658 22.3685 23.9838 22.3831C24.9087 22.3694 25.831 22.4851 26.7238 22.7271L29.6088 23.6181V19.3671L34.9428 20.1021V24.4911L34.1208 25.3611H13.0498Z" fill="black"/>
<path d="M23.9878 21.7421C27.6138 21.7421 29.5618 22.1231 35.0108 22.7771C37.7948 23.4141 39.8948 25.4501 39.8948 27.5121V34.8611C39.8948 36.7031 40.2238 38.8721 33.2488 40.1251C26.9578 41.4104 20.4718 41.4104 14.1808 40.1251C7.89483 38.8091 8.10483 36.7031 8.10483 34.8611V27.5121C8.10483 25.4561 10.2048 23.4241 12.9898 22.7871C16.621 22.138 20.2994 21.7885 23.9878 21.7421Z" fill="#343B4E"/>
<path d="M14.1768 40.1241C7.89579 38.8121 8.10679 36.7061 8.10679 34.8581V27.5131C8.10679 25.4561 10.2068 23.4241 12.9898 22.7901C16.6207 22.1385 20.2992 21.788 23.9878 21.7421H23.9998V41.0841C23.7811 41.0841 23.5625 41.0841 23.3438 41.0841C20.263 41.0847 17.1906 40.763 14.1768 40.1241Z" fill="url(#paint0_linear_8289_785)"/>
</g>
<defs>
<linearGradient id="paint0_linear_8289_785" x1="9.29799" y1="31.4131" x2="24.0006" y2="31.5698" gradientUnits="userSpaceOnUse">
<stop stop-color="#333A4C"/>
<stop offset="1" stop-color="#1E2433"/>
</linearGradient>
<clipPath id="clip0_8289_785">
<rect width="48" height="48" fill="white"/>
</clipPath>
</defs>
</svg>
