<svg xmlns="http://www.w3.org/2000/svg" xmlns:xlink="http://www.w3.org/1999/xlink" width="501.361" height="410.854" viewBox="0 0 501.361 410.854">
  <defs>
    <linearGradient id="linear-gradient" x1="0.686" y1="0.023" x2="0.48" y2="1" gradientUnits="objectBoundingBox">
      <stop offset="0"/>
      <stop offset="0.671" stop-color="#1e2033"/>
      <stop offset="1" stop-color="#34344e"/>
    </linearGradient>
  </defs>
  <g id="logo-ver-simplyfied-black" transform="translate(0.004)">
    <g id="logotype" transform="translate(18891.893 15605.449)">
      <path id="Wallet" d="M1343.24,1253.035h-9.94l-19.29-50.195h13.167l12.164,33.7,13.408-33.7h11.108l13.536,33.6,12.174-33.6H1402.6l-19.36,50.195h-11.191l-13.884-34.211-13.883,34.211Zm115.7,0h-10.955l-5.919-11.232h-26.78l-5.918,11.232h-13.225q13.512-25.1,27.031-50.195h11.267q13.537,25.108,27.106,50.195Zm-30.268-36.57-8.04,15.159h16.027Zm82.146,36.57H1468.3V1202.84h12.329v39.749h31.746v10.446Zm53.423,0h-42.515V1202.84h12.327v39.749H1565.8v10.446Zm57.392,0h-46.484V1202.84h47.569v10.245h-35.444v9.258h31.678v10.178h-31.678v10.268h35.915v10.245h-1.558Zm39.029,0h-10.773v-39.748H1628.5V1202.84h55.238v10.447h-21.521v39.748h-1.558Z" transform="translate(-20139.504 -16447.631)" fill="#1e2033"/>
      <path id="Ambire" d="M1386.647,859.02l-8.3-15.737h-37.513l-8.294,15.737H1314.01q18.935-35.167,37.877-70.33h15.792l37.978,70.33h-19.011Zm-27.056-51.229-11.255,21.227h22.438l-11.187-21.227Zm55.521,51.229V788.69h17.06l30.067,42.059,29.8-42.059H1509v70.33h-16.433V813.826l-23.727,33.98h-13.462l-23.833-33.593V859.02Zm164.856,0h-50.147V788.69h48.736c7.25,0,13.165,1.732,17.312,4.925a16.962,16.962,0,0,1,6.639,14.033,17.124,17.124,0,0,1-7.838,14.756,19.723,19.723,0,0,1,6.515,4.787,17.328,17.328,0,0,1,4.243,11.74c0,6.35-2.4,11.436-6.955,14.944C1594.141,857.208,1587.9,859.02,1579.969,859.02Zm3.355-54.613c-1.534-1.208-3.937-1.83-7.124-1.83h-29.382v13.91h29.476a10.752,10.752,0,0,0,6.9-2.006,6.372,6.372,0,0,0,2.22-5.139,5.919,5.919,0,0,0-2.091-4.934Zm2.059,28.119c-1.763-1.363-4.476-2.058-7.958-2.058h-30.606v14.664h30.891c3.591,0,6.177-.665,7.815-1.912a6.182,6.182,0,0,0,2.248-5.23A6.531,6.531,0,0,0,1585.383,832.526Zm35.966,26.494V788.69h17.28v70.33Zm38.1,0V788.69h45.623c8.236,0,14.688,2.11,19.151,5.962,4.638,4,7.061,9.785,7.061,16.956,0,6.492-2.167,11.859-6.261,15.751a24.521,24.521,0,0,1-12.638,6.044l23.792,25.621h-22.068l-22.332-24.216h-15.047v24.216h-17.28Zm51.991-53.7c-1.823-1.5-4.675-2.268-8.537-2.268H1676.73v17.4h26.177c3.791,0,6.653-.779,8.5-2.288,1.707-1.39,2.6-3.528,2.6-6.363,0-2.905-.865-5.079-2.565-6.477Zm36.614,53.7V788.69h67.314v14.36h-50.317v12.968h44.382v14.264h-44.382v14.382h50.317v14.359h-67.314Z" transform="translate(-20205.906 -16127.283)" fill="#1e2033" fill-rule="evenodd"/>
    </g>
    <g id="symbol" transform="translate(-308.734 -490.354)">
      <g id="_2171347963424" transform="translate(496.683 490.354)">
        <path id="Path_5782" data-name="Path 5782" d="M859.43,2619.473,845.393,2659.3a1.745,1.745,0,0,0,.091,1.374l13.111,25.753-36.026,20.41a.877.877,0,0,1-1.223-.383l-7.791-16.217a1.749,1.749,0,0,1,.115-1.717l45.45-69.2A.176.176,0,0,1,859.43,2619.473Z" transform="translate(-808.586 -2587.007)" fill="#1e2033"/>
        <path id="Path_5783" data-name="Path 5783" d="M5231.078,6152.147l29.84,63.561a1.75,1.75,0,0,1-.368,2l-78.462,75.79a.878.878,0,0,1-1.488-.63v-69.68l49.471-47.732a1.753,1.753,0,0,0,.536-1.249l.136-21.99A.176.176,0,0,1,5231.078,6152.147Z" transform="translate(-5109.687 -6066.328)" fill="#1e2033"/>
        <path id="Path_5784" data-name="Path 5784" d="M1014.671,7056.93l-42.811,8.452,5.564,11.582a.878.878,0,0,0,1.224.383h0l36.025-20.411Z" transform="translate(-964.666 -6957.513)"/>
        <path id="Path_5785" data-name="Path 5785" d="M850.939,2659.753,819.11,2688.92a1.764,1.764,0,0,1,.2-.416l45.45-69.2h0a.171.171,0,0,1,.144-.08h0a.176.176,0,0,1,.17.236l-14.039,39.828h0A1.749,1.749,0,0,0,850.939,2659.753Z" transform="translate(-814.228 -2586.99)" fill="#34344e"/>
        <path id="Path_5786" data-name="Path 5786" d="M5209.273,9028.42l-28.6,66.916v-39.318Z" transform="translate(-5109.755 -8899.154)"/>
        <path id="Path_5787" data-name="Path 5787" d="M8497.479,6216.866l-30.7-41.689a1.743,1.743,0,0,0,.254-.9l.137-21.99h0a.173.173,0,0,1,.176-.174h0a.17.17,0,0,1,.159.1l29.84,63.562h0A1.743,1.743,0,0,1,8497.479,6216.866Z" transform="translate(-8346.114 -6066.399)" fill="#34344e"/>
        <path id="Path_5788" data-name="Path 5788" d="M568.255,490.573l33.131,81.157a1.745,1.745,0,0,1-.011,1.348l-53.516,125.2a.878.878,0,0,1-1.416.285l-49.225-47.548a1.75,1.75,0,0,1-.192-2.3L567.237,553.6a1.753,1.753,0,0,0,.342-1.039V490.7A.351.351,0,0,1,568.255,490.573Z" transform="translate(-496.683 -490.354)" fill="url(#linear-gradient)"/>
        <path id="Path_5789" data-name="Path 5789" d="M5174.23,553.1l34.014,19.23a1.767,1.767,0,0,0-.128-.583h0l-33.131-81.156a.34.34,0,0,0-.322-.218h0a.345.345,0,0,0-.354.351h0v61.856A1.739,1.739,0,0,1,5174.23,553.1Z" transform="translate(-5103.413 -490.369)" fill="#34344e"/>
      </g>
    </g>
  </g>
</svg>
