<svg xmlns="http://www.w3.org/2000/svg" xmlns:xlink="http://www.w3.org/1999/xlink" width="693.285" height="227.331" viewBox="0 0 693.285 227.331">
  <defs>
    <linearGradient id="linear-gradient" x1="0.553" y1="0.579" x2="0.052" y2="0.408" gradientUnits="objectBoundingBox">
      <stop offset="0" stop-color="#6000ff"/>
      <stop offset="0.651" stop-color="#4900c3"/>
      <stop offset="1" stop-color="#320086"/>
    </linearGradient>
    <linearGradient id="linear-gradient-2" x1="0.06" y1="-0.087" x2="0.485" y2="0.653" gradientUnits="objectBoundingBox">
      <stop offset="0" stop-color="#6a0aff"/>
      <stop offset="0.047" stop-color="#892aff"/>
      <stop offset="0.102" stop-color="#6a0aff"/>
      <stop offset="0.902" stop-color="#a94aff"/>
      <stop offset="1" stop-color="#a94aff"/>
    </linearGradient>
    <linearGradient id="linear-gradient-3" x1="0.036" y1="0.003" x2="0.984" y2="0.971" gradientUnits="objectBoundingBox">
      <stop offset="0" stop-color="#9335fe"/>
      <stop offset="0.031" stop-color="#a954fe"/>
      <stop offset="1" stop-color="#bf73ff"/>
    </linearGradient>
    <linearGradient id="linear-gradient-4" x1="1.07" y1="0.062" x2="0.095" y2="1.049" gradientUnits="objectBoundingBox">
      <stop offset="0" stop-color="#6a0aff"/>
      <stop offset="0.51" stop-color="#8c2dff"/>
      <stop offset="0.969" stop-color="#af50ff"/>
      <stop offset="1" stop-color="#af50ff"/>
    </linearGradient>
    <linearGradient id="linear-gradient-5" x1="0.45" y1="0.296" x2="0.539" y2="0.798" gradientUnits="objectBoundingBox">
      <stop offset="0" stop-color="#6000ff"/>
      <stop offset="1" stop-color="#3e00a5"/>
    </linearGradient>
    <linearGradient id="linear-gradient-6" x1="-0.526" y1="1.069" x2="1.091" y2="0.859" gradientUnits="objectBoundingBox">
      <stop offset="0" stop-color="#9838ff"/>
      <stop offset="0.322" stop-color="#af50ff"/>
      <stop offset="1" stop-color="#6000ff"/>
    </linearGradient>
    <linearGradient id="linear-gradient-7" x1="-0.111" y1="0.274" x2="0.872" y2="1.224" gradientUnits="objectBoundingBox">
      <stop offset="0" stop-color="#6f0fff"/>
      <stop offset="0.702" stop-color="#a94aff"/>
      <stop offset="1" stop-color="#a94aff"/>
    </linearGradient>
    <linearGradient id="linear-gradient-8" x1="0.015" y1="0.008" x2="0.986" y2="0.949" gradientUnits="objectBoundingBox">
      <stop offset="0" stop-color="#ae60ff"/>
      <stop offset="0.031" stop-color="#b669ff"/>
      <stop offset="1" stop-color="#bf73ff"/>
    </linearGradient>
  </defs>
  <g id="logo-hor-color-white" transform="translate(0 -0.07)">
    <g id="logotype" transform="translate(19083.518 15380.664)">
      <path id="Wallet" d="M1343.229,1253.016h-9.937l-19.283-50.175h13.162l12.159,33.692,13.4-33.692h11.1l13.53,33.585,12.169-33.585h13.032l-19.353,50.175h-11.187l-13.878-34.2-13.878,34.2Zm115.656,0h-10.951l-5.917-11.228h-26.77l-5.916,11.228h-13.219q13.507-25.088,27.021-50.175H1434.4q13.532,25.1,27.1,50.175Zm-30.256-36.556-8.037,15.153h16.021Zm82.115,36.556h-42.5V1202.84h12.324v39.734H1512.3v10.442Zm53.4,0h-42.5V1202.84h12.322v39.734H1565.7v10.442Zm57.37,0h-46.467V1202.84H1622.6v10.241h-35.431v9.254h31.666v10.174h-31.666v10.264h35.9v10.241h-1.557Zm39.014,0H1649.76v-39.733h-21.379V1202.84H1683.6v10.443h-21.513v39.733h-1.557Z" transform="translate(-20205.414 -16447.666)" fill="#1e2033"/>
      <path id="Ambire" d="M1386.62,858.993l-8.292-15.731h-37.5l-8.291,15.731H1314.01q18.928-35.153,37.863-70.3h15.786l37.963,70.3h-19Zm-27.045-51.209L1348.323,829h22.43l-11.182-21.219Zm55.5,51.209v-70.3h17.054l30.056,42.043,29.785-42.043h16.958v70.3H1492.5V813.816l-23.718,33.967h-13.457L1431.5,814.2v44.79Zm164.793,0H1529.74v-70.3h48.718c7.247,0,13.16,1.731,17.305,4.923a16.955,16.955,0,0,1,6.636,14.028,17.118,17.118,0,0,1-7.835,14.751,19.717,19.717,0,0,1,6.513,4.786,17.322,17.322,0,0,1,4.241,11.736c0,6.348-2.4,11.431-6.952,14.938C1594.035,857.182,1587.794,858.993,1579.868,858.993Zm3.354-54.592c-1.534-1.207-3.936-1.829-7.121-1.829H1546.73v13.9h29.464a10.747,10.747,0,0,0,6.9-2.005,6.369,6.369,0,0,0,2.219-5.137,5.916,5.916,0,0,0-2.09-4.932Zm2.058,28.108c-1.762-1.363-4.474-2.058-7.955-2.058H1546.73V845.11h30.879c3.589,0,6.175-.665,7.812-1.911a6.179,6.179,0,0,0,2.247-5.228A6.528,6.528,0,0,0,1585.28,832.51Zm35.952,26.484v-70.3h17.274v70.3Zm38.089,0v-70.3h45.605c8.233,0,14.682,2.109,19.144,5.96,4.636,4,7.058,9.781,7.058,16.949,0,6.489-2.166,11.855-6.259,15.745a24.511,24.511,0,0,1-12.633,6.041L1736.019,859h-22.06l-22.323-24.207h-15.042V859h-17.273Zm51.972-53.684c-1.823-1.5-4.673-2.267-8.534-2.267h-26.167v17.391h26.167c3.789,0,6.65-.779,8.5-2.287,1.706-1.39,2.6-3.526,2.6-6.361,0-2.9-.865-5.077-2.564-6.475Zm36.6,53.684v-70.3h67.288v14.354h-50.3v12.963h44.365v14.259h-44.365v14.377h50.3V859h-67.288Z" transform="translate(-20205.414 -16127.283)" fill="#1e2033" fill-rule="evenodd"/>
    </g>
    <g id="symbol" transform="translate(0 0.07)">
      <path id="Path_5759" data-name="Path 5759" d="M168.628,142.938l29.831,63.5a1.805,1.805,0,0,1-.366,1.98L119.62,284.242a.871.871,0,0,1-1.47-.66V213.92L167.6,166.183a1.611,1.611,0,0,0,.516-1.248l.144-22c0-.144.294-.144.366,0Z" transform="translate(-47.275 -57.146)" fill="#6000ff"/>
      <path id="Path_5760" data-name="Path 5760" d="M118.15,229.337V299a.871.871,0,0,0,1.47.66h0l78.474-75.823a1.8,1.8,0,0,0,.366-1.98h0l-30.635-40.5L118.15,229.337Z" transform="translate(-47.275 -72.563)" fill-rule="evenodd" fill="url(#linear-gradient)"/>
      <path id="Path_5761" data-name="Path 5761" d="M201.552,142.7h-.018a.168.168,0,0,0-.18.174h0l-.126,22a1.808,1.808,0,0,1-.288,1.026L231.7,207.407a1.948,1.948,0,0,0-.144-1.1h0l-29.831-63.5a.191.191,0,0,0-.18-.1Z" transform="translate(-80.402 -57.094)" fill-rule="evenodd" fill="url(#linear-gradient-2)"/>
      <path id="Path_5762" data-name="Path 5762" d="M232.583,224.039a1.948,1.948,0,0,0-.144-1.1h0l-1.542-3.3L203.13,184.28l29.459,39.759Z" transform="translate(-81.279 -73.731)" fill-rule="evenodd" fill="url(#linear-gradient-3)"/>
      <path id="Path_5763" data-name="Path 5763" d="M53.958,53.953,39.928,93.694A1.868,1.868,0,0,0,40,95.086l13.077,25.74-36,20.383a.939.939,0,0,1-1.248-.366L8.039,124.635a1.55,1.55,0,0,1,.15-1.686L53.6,53.731a.222.222,0,0,1,.366.222Z" transform="translate(-3.143 -21.471)" fill="#6000ff"/>
      <path id="Path_5764" data-name="Path 5764" d="M55.234,53.666h-.012a.182.182,0,0,0-.138.06h0L11.618,119.987l-.048.09L41.419,93.689l.1-.27h0l.006-.018L55.456,53.942a.218.218,0,0,0-.216-.282h0Z" transform="translate(-4.628 -21.465)" fill-rule="evenodd" fill="url(#linear-gradient-4)"/>
      <path id="Path_5765" data-name="Path 5765" d="M8.183,149.655a1.561,1.561,0,0,0-.144,1.686h0l7.786,16.208a.942.942,0,0,0,1.248.366h0l36-20.383L40,121.792a1.812,1.812,0,0,1-.072-1.392L8.189,149.661Z" transform="translate(-3.143 -48.17)" fill-rule="evenodd" fill="url(#linear-gradient-5)"/>
      <path id="Path_5766" data-name="Path 5766" d="M70.873.356V62.172a1.78,1.78,0,0,1-.366,1.026h0L.335,158.3a1.7,1.7,0,0,0,.222,2.273h0l49.231,47.515a.845.845,0,0,0,1.4-.294h0l53.49-125.167a1.989,1.989,0,0,0,0-1.32h0L71.539.206a.318.318,0,0,0-.3-.216h0a.357.357,0,0,0-.36.36h0Z" transform="translate(0.002 0.01)" fill-rule="evenodd" fill="url(#linear-gradient-6)"/>
      <path id="Path_5767" data-name="Path 5767" d="M118.434,0h-.024a.364.364,0,0,0-.354.36l.024,61.816a1.868,1.868,0,0,1-.09.516L151.444,80.3,118.722.216A.328.328,0,0,0,118.434,0Zm-.444,62.686,6.389,3.665-6.389-3.665Z" transform="translate(-47.211 0.006)" fill-rule="evenodd" fill="url(#linear-gradient-7)"/>
      <path id="Path_5768" data-name="Path 5768" d="M152.006,123.816V123.8a1.993,1.993,0,0,0-.1-.642h0l-.426-1.05L118,104.5l6.413,3.665,27.594,15.644Z" transform="translate(-47.215 -41.808)" fill-rule="evenodd" fill="url(#linear-gradient-8)"/>
      <path id="Path_5769" data-name="Path 5769" d="M10.288,146.8,8.44,149.615,40.161,120.39Z" transform="translate(-3.376 -48.166)" fill="#b46cf3"/>
    </g>
  </g>
</svg>
