<svg xmlns="http://www.w3.org/2000/svg" xmlns:xlink="http://www.w3.org/1999/xlink" width="501.361" height="410.854" viewBox="0 0 501.361 410.854">
  <defs>
    <linearGradient id="linear-gradient" x1="0.553" y1="0.579" x2="0.052" y2="0.408" gradientUnits="objectBoundingBox">
      <stop offset="0" stop-color="#6000ff"/>
      <stop offset="0.651" stop-color="#4900c3"/>
      <stop offset="1" stop-color="#320086"/>
    </linearGradient>
    <linearGradient id="linear-gradient-2" x1="0.059" y1="-0.087" x2="0.485" y2="0.653" gradientUnits="objectBoundingBox">
      <stop offset="0" stop-color="#6a0aff"/>
      <stop offset="0.047" stop-color="#892aff"/>
      <stop offset="0.102" stop-color="#6a0aff"/>
      <stop offset="0.902" stop-color="#a94aff"/>
      <stop offset="1" stop-color="#a94aff"/>
    </linearGradient>
    <linearGradient id="linear-gradient-3" x1="0.036" y1="0.003" x2="0.984" y2="0.971" gradientUnits="objectBoundingBox">
      <stop offset="0" stop-color="#9335fe"/>
      <stop offset="0.031" stop-color="#a954fe"/>
      <stop offset="1" stop-color="#bf73ff"/>
    </linearGradient>
    <linearGradient id="linear-gradient-4" x1="1.07" y1="0.061" x2="0.095" y2="1.049" gradientUnits="objectBoundingBox">
      <stop offset="0" stop-color="#6a0aff"/>
      <stop offset="0.51" stop-color="#8c2dff"/>
      <stop offset="0.969" stop-color="#af50ff"/>
      <stop offset="1" stop-color="#af50ff"/>
    </linearGradient>
    <linearGradient id="linear-gradient-5" x1="0.45" y1="0.296" x2="0.539" y2="0.798" gradientUnits="objectBoundingBox">
      <stop offset="0" stop-color="#6000ff"/>
      <stop offset="1" stop-color="#3e00a5"/>
    </linearGradient>
    <linearGradient id="linear-gradient-6" x1="-0.526" y1="1.069" x2="1.091" y2="0.859" gradientUnits="objectBoundingBox">
      <stop offset="0" stop-color="#9838ff"/>
      <stop offset="0.322" stop-color="#af50ff"/>
      <stop offset="1" stop-color="#6000ff"/>
    </linearGradient>
    <linearGradient id="linear-gradient-7" x1="-0.111" y1="0.274" x2="0.872" y2="1.224" gradientUnits="objectBoundingBox">
      <stop offset="0" stop-color="#6f0fff"/>
      <stop offset="0.702" stop-color="#a94aff"/>
      <stop offset="1" stop-color="#a94aff"/>
    </linearGradient>
    <linearGradient id="linear-gradient-8" x1="0.015" y1="0.008" x2="0.986" y2="0.949" gradientUnits="objectBoundingBox">
      <stop offset="0" stop-color="#ae60ff"/>
      <stop offset="0.031" stop-color="#b669ff"/>
      <stop offset="1" stop-color="#bf73ff"/>
    </linearGradient>
  </defs>
  <g id="logo-ver-color-black" transform="translate(0.004)">
    <g id="logotype" transform="translate(18891.893 15605.449)">
      <path id="Wallet" d="M1343.24,1253.035h-9.94l-19.29-50.195h13.167l12.164,33.7,13.408-33.7h11.108l13.536,33.6,12.174-33.6H1402.6l-19.36,50.195h-11.191l-13.884-34.211-13.883,34.211Zm115.7,0h-10.955l-5.919-11.232h-26.78l-5.918,11.232h-13.225q13.512-25.1,27.031-50.195h11.267q13.537,25.108,27.106,50.195Zm-30.268-36.57-8.04,15.159h16.027Zm82.146,36.57H1468.3V1202.84h12.329v39.749h31.746v10.446Zm53.423,0h-42.515V1202.84h12.327v39.749H1565.8v10.446Zm57.392,0h-46.484V1202.84h47.569v10.245h-35.444v9.258h31.678v10.178h-31.678v10.268h35.915v10.245h-1.558Zm39.029,0h-10.773v-39.748H1628.5V1202.84h55.238v10.447h-21.521v39.748h-1.558Z" transform="translate(-20139.504 -16447.631)" fill="#1e2033"/>
      <path id="Ambire" d="M1386.647,859.02l-8.3-15.737h-37.513l-8.294,15.737H1314.01q18.935-35.167,37.877-70.33h15.792l37.978,70.33h-19.011Zm-27.056-51.229-11.255,21.227h22.438l-11.187-21.227Zm55.521,51.229V788.69h17.06l30.067,42.059,29.8-42.059H1509v70.33h-16.433V813.826l-23.727,33.98h-13.462l-23.833-33.593V859.02Zm164.856,0h-50.147V788.69h48.736c7.25,0,13.165,1.732,17.312,4.925a16.962,16.962,0,0,1,6.639,14.033,17.124,17.124,0,0,1-7.838,14.756,19.723,19.723,0,0,1,6.515,4.787,17.328,17.328,0,0,1,4.243,11.74c0,6.35-2.4,11.436-6.955,14.944C1594.141,857.208,1587.9,859.02,1579.969,859.02Zm3.355-54.613c-1.534-1.208-3.937-1.83-7.124-1.83h-29.382v13.91h29.476a10.752,10.752,0,0,0,6.9-2.006,6.372,6.372,0,0,0,2.22-5.139,5.919,5.919,0,0,0-2.091-4.934Zm2.059,28.119c-1.763-1.363-4.476-2.058-7.958-2.058h-30.606v14.664h30.891c3.591,0,6.177-.665,7.815-1.912a6.182,6.182,0,0,0,2.248-5.23A6.531,6.531,0,0,0,1585.383,832.526Zm35.966,26.494V788.69h17.28v70.33Zm38.1,0V788.69h45.623c8.236,0,14.688,2.11,19.151,5.962,4.638,4,7.061,9.785,7.061,16.956,0,6.492-2.167,11.859-6.261,15.751a24.521,24.521,0,0,1-12.638,6.044l23.792,25.621h-22.068l-22.332-24.216h-15.047v24.216h-17.28Zm51.991-53.7c-1.823-1.5-4.675-2.268-8.537-2.268H1676.73v17.4h26.177c3.791,0,6.653-.779,8.5-2.288,1.707-1.39,2.6-3.528,2.6-6.363,0-2.905-.865-5.079-2.565-6.477Zm36.614,53.7V788.69h67.314v14.36h-50.317v12.968h44.382v14.264h-44.382v14.382h50.317v14.359h-67.314Z" transform="translate(-20205.906 -16127.283)" fill="#1e2033" fill-rule="evenodd"/>
    </g>
    <g id="symbol" transform="translate(187.953)">
      <path id="Path_5771" data-name="Path 5771" d="M620.289,188.764l29.843,63.524a1.8,1.8,0,0,1-.368,1.981l-78.5,75.849a.871.871,0,0,1-1.472-.659V259.77l49.468-47.755a1.611,1.611,0,0,0,.513-1.249l.145-22.006c0-.145.3-.145.368,0Z" transform="translate(-498.892 -102.939)" fill="#6000ff"/>
      <path id="Path_5772" data-name="Path 5772" d="M569.8,287.561V357.25a.871.871,0,0,0,1.472.659h0l78.5-75.849a1.809,1.809,0,0,0,.368-1.981h0L619.49,239.57Z" transform="translate(-498.898 -130.726)" fill-rule="evenodd" fill="url(#linear-gradient)"/>
      <path id="Path_5773" data-name="Path 5773" d="M679.78,188.49h-.014a.169.169,0,0,0-.177.177h0l-.123,22a1.816,1.816,0,0,1-.286,1.022l30.769,41.527a1.936,1.936,0,0,0-.145-1.1h0l-29.843-63.524a.2.2,0,0,0-.177-.1Z" transform="translate(-558.587 -102.851)" fill-rule="evenodd" fill="url(#linear-gradient-2)"/>
      <path id="Path_5774" data-name="Path 5774" d="M711.51,283.193a1.936,1.936,0,0,0-.145-1.1h0l-1.545-3.3L682.04,243.42Z" transform="translate(-560.148 -132.827)" fill-rule="evenodd" fill="url(#linear-gradient-3)"/>
      <path id="Path_5775" data-name="Path 5775" d="M470.219,71.188l-14.038,39.76a1.859,1.859,0,0,0,.073,1.395l13.084,25.749-36.016,20.393a.944.944,0,0,1-1.249-.368L424.281,141.9a1.547,1.547,0,0,1,.15-1.685L469.856,70.97a.224.224,0,0,1,.368.223Z" transform="translate(-419.387 -38.688)" fill="#6000ff"/>
      <path id="Path_5776" data-name="Path 5776" d="M472.675,70.9h-.014a.179.179,0,0,0-.136.059h0l-43.485,66.29-.05.086,29.861-26.4.1-.268h0l0-.018,13.938-39.473a.216.216,0,0,0-.214-.277h0Z" transform="translate(-422.057 -38.682)" fill-rule="evenodd" fill="url(#linear-gradient-4)"/>
      <path id="Path_5777" data-name="Path 5777" d="M424.426,188.3a1.555,1.555,0,0,0-.145,1.685h0l7.791,16.214a.945.945,0,0,0,1.249.368h0l36.016-20.393-13.084-25.749a1.817,1.817,0,0,1-.073-1.395Z" transform="translate(-419.387 -86.775)" fill-rule="evenodd" fill="url(#linear-gradient-5)"/>
      <path id="Path_5778" data-name="Path 5778" d="M484.631.348V62.186a1.758,1.758,0,0,1-.368,1.027h0l-70.2,95.143a1.7,1.7,0,0,0,.223,2.271h0l49.25,47.533a.842.842,0,0,0,1.395-.3h0L518.444,82.648a2,2,0,0,0,0-1.322h0L485.294.193a.313.313,0,0,0-.3-.214h0a.363.363,0,0,0-.363.359h0Z" transform="translate(-413.728 0.02)" fill-rule="evenodd" fill="url(#linear-gradient-6)"/>
      <path id="Path_5779" data-name="Path 5779" d="M570.041,0h-.018a.362.362,0,0,0-.354.359l.023,61.838a1.8,1.8,0,0,1-.091.513l33.468,17.622L570.331.214A.319.319,0,0,0,570.041,0ZM569.6,62.711l6.392,3.666L569.6,62.711Z" transform="translate(-498.789 0.009)" fill-rule="evenodd" fill="url(#linear-gradient-7)"/>
      <path id="Path_5780" data-name="Path 5780" d="M603.617,157.361v-.009a1.951,1.951,0,0,0-.1-.641h0l-.422-1.049L569.6,138.04l6.415,3.666,27.607,15.65Z" transform="translate(-498.789 -75.32)" fill-rule="evenodd" fill="url(#linear-gradient-8)"/>
      <path id="Path_5781" data-name="Path 5781" d="M426.729,185.447l-1.849,2.817,31.728-29.234Z" transform="translate(-419.814 -86.775)" fill="#b46cf3"/>
    </g>
  </g>
</svg>
