<svg xmlns="http://www.w3.org/2000/svg" xmlns:xlink="http://www.w3.org/1999/xlink" width="693.285" height="227.33" viewBox="0 0 693.285 227.33">
  <defs>
    <linearGradient id="linear-gradient" x1="0.686" y1="0.023" x2="0.48" y2="1" gradientUnits="objectBoundingBox">
      <stop offset="0" stop-color="#bbbbbf"/>
      <stop offset="0.671" stop-color="#dbdbdf"/>
      <stop offset="1" stop-color="#fff"/>
    </linearGradient>
  </defs>
  <g id="logo-hor-color-white" transform="translate(0 -0.006)">
    <g id="logotype" transform="translate(19083.518 15380.664)">
      <path id="Wallet" d="M1343.229,1253.016h-9.937l-19.283-50.175h13.162l12.159,33.692,13.4-33.692h11.1l13.53,33.585,12.169-33.585h13.032l-19.353,50.175h-11.187l-13.878-34.2-13.878,34.2Zm115.656,0h-10.951l-5.917-11.228h-26.77l-5.916,11.228h-13.219q13.507-25.088,27.021-50.175H1434.4q13.532,25.1,27.1,50.175Zm-30.256-36.556-8.037,15.153h16.021Zm82.115,36.556h-42.5V1202.84h12.324v39.734H1512.3v10.442Zm53.4,0h-42.5V1202.84h12.322v39.734H1565.7v10.442Zm57.37,0h-46.467V1202.84H1622.6v10.241h-35.431v9.254h31.666v10.174h-31.666v10.264h35.9v10.241h-1.557Zm39.014,0H1649.76v-39.733h-21.379V1202.84H1683.6v10.443h-21.513v39.733h-1.557Z" transform="translate(-20205.414 -16447.666)" fill="#fff"/>
      <path id="Ambire" d="M1386.62,858.993l-8.292-15.731h-37.5l-8.291,15.731H1314.01q18.928-35.153,37.863-70.3h15.786l37.963,70.3h-19Zm-27.045-51.209L1348.323,829h22.43l-11.182-21.219Zm55.5,51.209v-70.3h17.054l30.056,42.043,29.785-42.043h16.958v70.3H1492.5V813.816l-23.718,33.967h-13.457L1431.5,814.2v44.79Zm164.793,0H1529.74v-70.3h48.718c7.247,0,13.16,1.731,17.305,4.923a16.955,16.955,0,0,1,6.636,14.028,17.118,17.118,0,0,1-7.835,14.751,19.717,19.717,0,0,1,6.513,4.786,17.322,17.322,0,0,1,4.241,11.736c0,6.348-2.4,11.431-6.952,14.938C1594.035,857.182,1587.794,858.993,1579.868,858.993Zm3.354-54.592c-1.534-1.207-3.936-1.829-7.121-1.829H1546.73v13.9h29.464a10.747,10.747,0,0,0,6.9-2.005,6.369,6.369,0,0,0,2.219-5.137,5.916,5.916,0,0,0-2.09-4.932Zm2.058,28.108c-1.762-1.363-4.474-2.058-7.955-2.058H1546.73V845.11h30.879c3.589,0,6.175-.665,7.812-1.911a6.179,6.179,0,0,0,2.247-5.228A6.528,6.528,0,0,0,1585.28,832.51Zm35.952,26.484v-70.3h17.274v70.3Zm38.089,0v-70.3h45.605c8.233,0,14.682,2.109,19.144,5.96,4.636,4,7.058,9.781,7.058,16.949,0,6.489-2.166,11.855-6.259,15.745a24.511,24.511,0,0,1-12.633,6.041L1736.019,859h-22.06l-22.323-24.207h-15.042V859h-17.273Zm51.972-53.684c-1.823-1.5-4.673-2.267-8.534-2.267h-26.167v17.391h26.167c3.789,0,6.65-.779,8.5-2.287,1.706-1.39,2.6-3.526,2.6-6.361,0-2.9-.865-5.077-2.564-6.475Zm36.6,53.684v-70.3h67.288v14.354h-50.3v12.963h44.365v14.259h-44.365v14.377h50.3V859h-67.288Z" transform="translate(-20205.414 -16127.283)" fill="#fff" fill-rule="evenodd"/>
    </g>
    <g id="symbol" transform="translate(-496.682 -490.349)">
      <g id="_2171347963424" transform="translate(496.683 490.354)">
        <path id="Path_5782" data-name="Path 5782" d="M859.412,2619.472l-14.032,39.813a1.744,1.744,0,0,0,.091,1.374l13.106,25.743-36.012,20.4a.877.877,0,0,1-1.223-.383l-7.788-16.21a1.748,1.748,0,0,1,.115-1.717l45.432-69.177A.176.176,0,0,1,859.412,2619.472Z" transform="translate(-808.588 -2587.02)" fill="#d6d6da"/>
        <path id="Path_5783" data-name="Path 5783" d="M5231.059,6152.146l29.828,63.536a1.749,1.749,0,0,1-.367,2l-78.431,75.76a.878.878,0,0,1-1.488-.63v-69.652l49.452-47.713a1.753,1.753,0,0,0,.536-1.248l.136-21.982A.176.176,0,0,1,5231.059,6152.146Z" transform="translate(-5109.714 -6066.361)" fill="#d6d6da"/>
        <path id="Path_5784" data-name="Path 5784" d="M1014.654,7056.929l-42.794,8.449,5.562,11.577a.877.877,0,0,0,1.224.383h0l36.011-20.4Z" transform="translate(-964.669 -6957.552)" fill="#b4b4ba"/>
        <path id="Path_5785" data-name="Path 5785" d="M850.926,2659.737l-31.816,29.156a1.764,1.764,0,0,1,.2-.416l45.432-69.177h0a.171.171,0,0,1,.144-.08h0a.176.176,0,0,1,.17.236l-14.034,39.812h0A1.743,1.743,0,0,0,850.926,2659.737Z" transform="translate(-814.23 -2587.002)" fill="#fff"/>
        <path id="Path_5786" data-name="Path 5786" d="M5209.262,9028.42l-28.592,66.89v-39.3Z" transform="translate(-5109.783 -8899.205)" fill="#b4b4ba"/>
        <path id="Path_5787" data-name="Path 5787" d="M8497.466,6216.841l-30.686-41.672a1.743,1.743,0,0,0,.254-.9l.137-21.981h0a.173.173,0,0,1,.175-.174h0a.17.17,0,0,1,.159.1l29.828,63.537h0A1.741,1.741,0,0,1,8497.466,6216.841Z" transform="translate(-8346.162 -6066.433)" fill="#fff"/>
        <path id="Path_5788" data-name="Path 5788" d="M568.226,490.573,601.344,571.7a1.744,1.744,0,0,1-.011,1.348L547.838,698.2a.877.877,0,0,1-1.416.285l-49.205-47.529a1.75,1.75,0,0,1-.192-2.3l70.185-95.079a1.752,1.752,0,0,0,.342-1.039V490.7A.351.351,0,0,1,568.226,490.573Z" transform="translate(-496.683 -490.354)" fill="url(#linear-gradient)"/>
        <path id="Path_5789" data-name="Path 5789" d="M5174.23,553.073l34,19.222a1.766,1.766,0,0,0-.128-.583h0l-33.118-81.124a.34.34,0,0,0-.322-.218h0a.344.344,0,0,0-.353.35h0v61.831A1.738,1.738,0,0,1,5174.23,553.073Z" transform="translate(-5103.44 -490.369)" fill="#fff"/>
      </g>
    </g>
  </g>
</svg>
