<?xml version="1.0" encoding="UTF-8"?>
<!DOCTYPE svg PUBLIC "-//W3C//DTD SVG 1.1//EN" "http://www.w3.org/Graphics/SVG/1.1/DTD/svg11.dtd">
<!-- Creator: CorelDRAW 2019 (64-Bit) -->
<svg xmlns="http://www.w3.org/2000/svg" xml:space="preserve" width="72.6585mm" height="82.0809mm" version="1.1" style="shape-rendering:geometricPrecision; text-rendering:geometricPrecision; image-rendering:optimizeQuality; fill-rule:evenodd; clip-rule:evenodd"
viewBox="0 0 3584.66 4049.52"
 xmlns:xlink="http://www.w3.org/1999/xlink">
 <defs>
  <style type="text/css">
   <![CDATA[
    .fil0 {fill:white}
    .fil2 {fill:url(#id0)}
    .fil1 {fill:url(#id1)}
   ]]>
  </style>
  <linearGradient id="id0" gradientUnits="objectBoundingBox" x1="100%" y1="50%" x2="4.44089e-14%" y2="50%">
   <stop offset="0" style="stop-opacity:1; stop-color:#6000FF"/>
   <stop offset="0.65098" style="stop-opacity:1; stop-color:#4900C3"/>
   <stop offset="1" style="stop-opacity:1; stop-color:#320086"/>
  </linearGradient>
  <linearGradient id="id1" gradientUnits="userSpaceOnUse" x1="2387.58" y1="3065.1" x2="478.79" y2="1156.77">
   <stop offset="0" style="stop-opacity:1; stop-color:#AE60FF"/>
   <stop offset="0.321569" style="stop-opacity:1; stop-color:#AF50FF"/>
   <stop offset="1" style="stop-opacity:1; stop-color:#6000FF"/>
  </linearGradient>
 </defs>
 <g id="Layer_x0020_1">
  <metadata id="CorelCorpID_0Corel-Layer"/>
  <g id="_2581311563792">
   <path class="fil0" d="M525.69 3520.37l-59.08 -112.09 -267.24 0 -59.06 112.09 -132.04 0c89.91,-167.01 179.82,-334.03 269.83,-501l112.49 0 270.54 501 -135.43 0zm-192.74 -364.93l-80.18 151.22 159.85 0 -79.67 -151.22zm395.51 364.93l0 -501 121.53 0 214.18 299.61 212.25 -299.61 120.85 0 0 501 -117.06 0 0 -321.95 -169.03 242.08 -95.91 0 -169.76 -239.32 0 319.19 -117.05 0zm1174.36 0l-357.23 0 0 -501 347.16 0c51.65,0 93.8,12.32 123.33,35.08 30.47,23.48 47.29,57.45 47.29,99.96 0,28.07 -8.11,54.1 -24.33,75.73 -8.38,11.18 -18.89,21.09 -31.52,29.38 18.74,8.82 34.3,20.3 46.42,34.11 19.79,22.54 30.23,50.88 30.23,83.63 0,45.25 -17.08,81.48 -49.54,106.46 -30.86,23.74 -75.34,36.64 -131.83,36.64zm23.92 -389.03c-10.95,-8.59 -28.06,-13.03 -50.76,-13.03l-209.3 0 0 99.09 209.97 0c20.91,0 37.88,-4.97 49.17,-14.29 10.06,-8.3 15.81,-20.68 15.81,-36.6 0,-15.7 -5.13,-27.5 -14.89,-35.17zm14.65 200.31c-12.55,-9.72 -31.89,-14.66 -56.68,-14.66l-218.02 0 0 104.46 220.03 0c25.57,0 44.01,-4.74 55.69,-13.63 10.75,-8.18 16.01,-20.82 16.01,-37.26 0,-17.39 -6.01,-30.39 -17.02,-38.91zm256.22 188.72l0 -501 123.1 0 0 501 -123.1 0zm271.42 0l0 -501 325.01 0c58.68,0 104.64,15.02 136.43,42.45 33.05,28.51 50.3,69.71 50.3,120.79 0,46.25 -15.44,84.49 -44.59,112.2 -22.39,21.3 -52.69,36.04 -90.03,43.05l169.47 182.51 -157.2 0 -159.09 -172.5 -107.2 0 0 172.5 -123.09 0zm370.37 -382.56c-12.97,-10.67 -33.31,-16.15 -60.8,-16.15l-186.48 0 0 123.92 186.48 0c26.99,0 47.39,-5.56 60.56,-16.3 12.15,-9.91 18.52,-25.13 18.52,-45.33 0,-20.71 -6.16,-36.19 -18.27,-46.15zm260.82 382.56l0 -501 479.52 0 0 102.29 -358.43 0 0 92.37 316.15 0 0 101.61 -316.15 0 0 102.45 358.43 0 0 102.28 -479.52 0z"/>
   <path class="fil0" d="M1347.77 4044.59l-77.93 0 -42.1 -79.88 -190.45 0 -42.09 79.88 -94.08 0c64.06,-119.02 128.12,-238.05 192.29,-357.01l80.14 0 192.78 357.01 -18.56 0zm-215.28 -260.08l-57.16 107.8 113.94 0 -56.79 -107.8zm484.27 260.08l-202.42 0 0 -357.01 202.42 0c63.71,0 113.61,16.61 147.96,46.83 35.38,31.13 53.98,76.24 53.98,132.16 0,55.83 -18.56,100.64 -53.89,131.54 -34.38,30.07 -84.31,46.48 -148.06,46.48zm-114.72 -74.31l117.11 0c36.67,0 64.11,-9.28 82.2,-26.45 18.44,-17.49 27.73,-43.78 27.73,-77.26 0,-33.77 -9.29,-60.29 -27.76,-77.96 -18.09,-17.34 -45.5,-26.72 -82.17,-26.72l-117.11 0 0 208.39zm728.11 74.31l-330.61 0 0 -357.01 338.35 0 0 72.87 -252.09 0 0 65.85 225.3 0 0 72.39 -225.3 0 0 73.02 255.43 0 0 72.87 -11.09 0zm238.5 -123.32l-105.06 123.32 -107.25 0 157.78 -182.22 -155.37 -174.8 110.98 0 103.99 119.05 102.17 -119.05 107.56 0 -156.15 177.08 159.54 179.93 -110.4 0 -107.79 -123.32z"/>
  </g>
  <g id="_2581311564336">
   <polygon class="fil1" points="968.25,1861.56 1486.17,1343.64 968.27,825.74 1275.69,518.31 1793.99,1036.62 2312.32,518.31 2619.74,825.74 2101.82,1343.66 2619.72,1861.56 2311.91,2169.38 1794,1651.47 1276.08,2169.4 "/>
   <polygon class="fil2" points="1310.55,483.46 1794,0 2277.46,483.46 2018.08,742.83 1794,518.76 1569.93,742.83 "/>
   <polygon class="fil2" points="1310.55,2203.84 1794,2687.3 2277.46,2203.84 2018.08,1944.46 1794,2168.54 1569.93,1944.46 "/>
  </g>
 </g>
</svg>
