<?xml version="1.0" encoding="UTF-8"?>
<!DOCTYPE svg PUBLIC "-//W3C//DTD SVG 1.1//EN" "http://www.w3.org/Graphics/SVG/1.1/DTD/svg11.dtd">
<!-- Creator: CorelDRAW 2019 (64-Bit) -->
<svg xmlns="http://www.w3.org/2000/svg" xml:space="preserve" width="213mm" height="102mm" version="1.1" style="shape-rendering:geometricPrecision; text-rendering:geometricPrecision; image-rendering:optimizeQuality; fill-rule:evenodd; clip-rule:evenodd"
viewBox="0 0 21300 10200"
 xmlns:xlink="http://www.w3.org/1999/xlink">
 <defs>
  <style type="text/css">
   <![CDATA[
    .fil0 {fill:#E7E8E9}
    .fil3 {fill:white}
    .fil1 {fill:#BBBDBF;fill-rule:nonzero}
    .fil4 {fill:url(#id0)}
    .fil2 {fill:url(#id1)}
    .fil5 {fill:url(#id2);fill-rule:nonzero}
   ]]>
  </style>
  <linearGradient id="id0" gradientUnits="userSpaceOnUse" x1="1138.87" y1="4132.68" x2="1317.47" y2="5186.97">
   <stop offset="0" style="stop-opacity:1; stop-color:#BBBDBF"/>
   <stop offset="0.54902" style="stop-opacity:1; stop-color:#929395"/>
   <stop offset="1" style="stop-opacity:1; stop-color:#68696A"/>
  </linearGradient>
  <linearGradient id="id1" gradientUnits="userSpaceOnUse" x1="5152.44" y1="7931.93" x2="3309.69" y2="7007.39">
   <stop offset="0" style="stop-opacity:1; stop-color:#C2C2C2"/>
   <stop offset="0.690196" style="stop-opacity:1; stop-color:#959696"/>
   <stop offset="1" style="stop-opacity:1; stop-color:#68696A"/>
  </linearGradient>
  <linearGradient id="id2" gradientUnits="userSpaceOnUse" x1="-1438.39" y1="-1351.94" x2="6127.47" y2="10724.92">
   <stop offset="0" style="stop-opacity:1; stop-color:#BBBDBF"/>
   <stop offset="0.670588" style="stop-opacity:1; stop-color:#DDDEDF"/>
   <stop offset="1" style="stop-opacity:1; stop-color:white"/>
  </linearGradient>
 </defs>
 <g id="Layer_x0020_1">
  <metadata id="CorelCorpID_0Corel-Layer"/>
  <g id="_2128252264768">
   <path class="fil0" d="M9872.59 6715.52l-220.25 -417.88 -996.25 0 -220.21 417.88 -492.25 0c335.2,-622.62 670.37,-1245.28 1005.91,-1867.73l419.35 0 1008.58 1867.73 -504.88 0zm-718.53 -1360.45l-298.92 563.75 595.93 0 -297.01 -563.75zm1474.45 1360.45l0 -1867.73 453.06 0 798.47 1116.93 791.28 -1116.93 450.54 0 0 1867.73 -436.41 0 0 -1200.21 -630.14 902.45 -357.55 0 -632.88 -892.17 0 1189.93 -436.37 0zm4378.02 0l-1331.73 0 0 -1867.73 1294.21 0c192.56,0 349.67,45.95 459.79,130.78 113.61,87.56 176.29,214.18 176.29,372.68 0,104.64 -30.24,201.69 -90.69,282.32 -31.25,41.67 -70.42,78.6 -117.49,109.55 69.85,32.85 127.87,75.67 173.07,127.16 73.78,84.03 112.69,189.68 112.69,311.77 0,168.66 -63.65,303.75 -184.7,396.87 -115.05,88.48 -280.84,136.6 -491.44,136.6zm89.16 -1450.31c-40.82,-32.04 -104.62,-48.6 -189.23,-48.6l-780.27 0 0 369.41 782.77 0c77.94,0 141.22,-18.54 183.29,-53.26 37.52,-30.96 58.95,-77.11 58.95,-136.46 0,-58.52 -19.12,-102.53 -55.51,-131.09zm54.61 746.76c-46.78,-36.23 -118.87,-54.66 -211.32,-54.66l-812.79 0 0 389.41 820.29 0c95.32,0 164.06,-17.65 207.59,-50.79 40.07,-30.51 59.68,-77.62 59.68,-138.9 0,-64.81 -22.41,-113.28 -63.45,-145.06zm955.18 703.55l0 -1867.73 458.89 0 0 1867.73 -458.89 0zm1011.83 0l0 -1867.73 1211.64 0c218.77,0 390.09,55.99 508.61,158.27 123.19,106.28 187.52,259.87 187.52,450.29 0,172.41 -57.57,314.97 -166.22,418.3 -83.5,79.42 -196.43,134.38 -335.66,160.48l631.79 680.39 -586.06 0 -593.07 -643.08 -399.66 0 0 643.08 -458.89 0zm1380.76 -1426.18c-48.34,-39.79 -124.18,-60.21 -226.67,-60.21l-695.2 0 0 461.99 695.2 0c100.6,0 176.66,-20.71 225.77,-60.76 45.29,-36.93 69.02,-93.67 69.02,-168.99 0,-77.2 -22.96,-134.9 -68.12,-172.03zm972.35 1426.18l0 -1867.73 1787.65 0 0 381.34 -1336.26 0 0 344.36 1178.61 0 0 378.82 -1178.61 0 0 381.91 1336.26 0 0 381.3 -1787.65 0z"/>
   <g>
    <path class="fil1" d="M5378.14 3877.51l1312.27 2793.41c12.93,29.04 6.48,64.53 -16.14,87.11l-3452.01 3335.36c-25.88,22.55 -64.64,6.45 -64.64,-29.03l0 -3064.41 2175.27 -2099.91c16.17,-12.9 22.62,-35.5 22.62,-54.84l6.46 -967.69c0,-6.45 12.93,-6.45 16.17,0z"/>
    <path class="fil2" d="M3157.6 6999.97l0 3064.41c0,35.43 38.8,51.58 64.64,28.99l0 0 3452.01 -3335.32c22.67,-22.58 29.08,-58.07 16.19,-87.1l0 0 -1347.73 -1781.41 -2185.11 2110.43z"/>
    <path class="fil3" d="M5369.13 3869.24l-0.15 0 -0.16 0 -0.19 0c-4,0.09 -7.78,2.51 -7.78,7.74l0 0 -5.48 967.54c0,12.9 -2.97,32.11 -12.66,45.02l1353.03 1826.03c3.25,-16.17 0,-32.29 -6.48,-48.42l-67.89 -145.1 -0.7 -0.89 -1243.69 -2647.43c-1.4,-2.8 -4.62,-4.38 -7.85,-4.49l0 0zm1320.13 2797.91l0 0z"/>
    <path class="fil1" d="M2275.2 1532.45l-617.36 1748.3c-6.45,19.39 -6.45,41.94 3.24,61.28l575.36 1132.22 -1583.81 896.76c-19.39,9.65 -45.26,3.21 -54.95,-16.14l-342.63 -712.88c-12.94,-25.79 -9.69,-51.62 6.49,-74.18l1997.49 -3045.05c6.49,-6.45 19.41,0 16.17,9.69z"/>
    <path class="fil3" d="M2265.76 1520.18l-0.61 0c-2.21,0.07 -4.41,0.88 -6.11,2.58l0 0 -1912.17 2914.93 -2.15 3.82 1313.13 -1160.75 -1313.99 1161.54 -81.33 123.96 1395.32 -1285.5 4.14 -11.76c0,-0.04 0,-0.04 0.05,-0.04l0 0 0.27 -0.82 612.91 -1735.69c2.27,-6.88 -3.56,-12.09 -9.46,-12.27z"/>
    <path class="fil4" d="M261.52 4567.83c-16.14,22.54 -19.39,48.34 -6.46,74.18l0 0 342.59 712.87c9.73,19.34 35.57,25.8 55,16.09l0 0 1583.77 -896.72 -575.33 -1132.17c-9.72,-19.39 -9.72,-41.98 -3.24,-61.32l-1396.33 1287.07z"/>
    <path class="fil5" d="M3157.6 119.59l0 2719.23c0,16.14 -6.5,32.29 -16.14,45.19l0 0 -3086.8 4183.69c-22.63,29.04 -19.39,74.17 9.69,100l0 0 2165.62 2090.23c19.37,19.35 51.7,12.89 61.39,-12.89l0 0 2353.05 -5506.21c6.48,-16.18 6.48,-38.72 0,-58.07l0 0 -1457.73 -3567.57c-2.58,-6.54 -7.86,-9.39 -13.17,-9.39l0 0c-7.86,0 -15.91,6.18 -15.91,15.79z"/>
    <path class="fil3" d="M3172.78 103.8l-0.24 0c-7.91,0 -15.91,6.18 -15.91,15.79l0.97 2719.23c0,6.49 -1.53,15.14 -4.02,22.59l282 161.3 1213.9 688.25 0 -0.46c-0.04,-9.53 -1.38,-18.67 -4.56,-28.21l0 0 -18.69 -46.08 -1.28 -0.68 -1439.26 -3522.35c-2.58,-6.43 -7.69,-9.29 -12.91,-9.38zm-19.2 2757.61l280.98 161.3 -280.98 -161.3z"/>
   </g>
  </g>
 </g>
</svg>
