<?xml version="1.0" encoding="utf-8"?>
<!-- Generator: Adobe Illustrator 21.1.0, SVG Export Plug-In . SVG Version: 6.00 Build 0)  -->
<svg version="1.1" id="Layer_1" xmlns="http://www.w3.org/2000/svg" xmlns:xlink="http://www.w3.org/1999/xlink" x="0px" y="0px"
	 viewBox="0 0 300 400" style="enable-background:new 0 0 300 400;" xml:space="preserve">
<style type="text/css">
	.st0{fill:#E5E6E7;}
</style>
<g>
	<path class="st0" d="M252.8,203.6L212.2,117c-0.1-0.2-0.5-0.2-0.5,0.1l-0.2,30c0,0.6-0.3,1.3-0.7,1.7l-62.5,60.4l41.1-96.4
		c0.3-0.6,0.3-1.2,0-1.8L144.4,0.3c-0.2-0.5-0.9-0.3-0.9,0.2v84.3c0,0.5-0.2,1-0.5,1.4l-31.4,42.6l-14.4-28.4
		c-0.3-0.6-0.3-1.3-0.1-1.9l19.1-54.3c0.1-0.3-0.3-0.4-0.4-0.2l-61.9,94.3c-0.5,0.7-0.5,1.6-0.2,2.3l10.6,22.1
		c0.3,0.6,1.1,0.9,1.7,0.5l34.6-19.6l-53.2,72.2c-0.7,1-0.6,2.3,0.3,3.1l67,64.8c0.6,0.6,1.6,0.4,1.9-0.4l26.9-62.9v88.3
		c0,1.1,1.3,1.6,2,0.9l106.8-103.3C253,205.6,253.2,204.5,252.8,203.6z"/>
</g>
</svg>
