<?xml version="1.0" encoding="utf-8"?>
<!-- Generator: Adobe Illustrator 21.1.0, SVG Export Plug-In . SVG Version: 6.00 Build 0)  -->
<svg version="1.1" id="Layer_1" xmlns="http://www.w3.org/2000/svg" xmlns:xlink="http://www.w3.org/1999/xlink" x="0px" y="0px"
	 viewBox="0 0 800 310" style="enable-background:new 0 0 800 310;" xml:space="preserve">
<style type="text/css">
	.st0{fill:#E5E6E7;}
</style>
<g>
	<path class="st0" d="M205.8,203.6L165.2,117c-0.1-0.2-0.5-0.2-0.5,0.1l-0.2,30c0,0.6-0.3,1.3-0.7,1.7l-62.5,60.4l41.1-96.4
		c0.3-0.6,0.3-1.2,0-1.8L97.4,0.3c-0.2-0.5-0.9-0.3-0.9,0.2v84.3c0,0.5-0.2,1-0.5,1.4l-31.4,42.6l-14.4-28.4
		c-0.3-0.6-0.3-1.3-0.1-1.9l19.1-54.3c0.1-0.3-0.3-0.4-0.4-0.2L6.9,138.4c-0.5,0.7-0.5,1.6-0.2,2.3l10.6,22.1
		c0.3,0.6,1.1,0.9,1.7,0.5l34.6-19.6L0.5,215.9c-0.7,1-0.6,2.3,0.3,3.1l67,64.8c0.6,0.6,1.6,0.4,1.9-0.4l26.9-62.9v88.3
		c0,1.1,1.3,1.6,2,0.9l106.8-103.3C206.1,205.6,206.3,204.5,205.8,203.6z"/>
	<g>
		<g>
			<path class="st0" d="M352.7,189.2h-41.2l-8.5,16.2H289l36.5-67.7h13.5l36.6,67.7h-14.4L352.7,189.2z M347.3,179l-15.2-28.8
				L316.8,179H347.3z"/>
			<path class="st0" d="M391.8,137.6h14.1l32,44.8l31.7-44.8h14v67.7h-12.4v-51.3l-27.8,39.8H432l-27.9-39.3v50.8h-12.4V137.6z"/>
			<path class="st0" d="M510,137.6h47.8c13.8,0,22.3,6.4,22.3,17.2c0,7-3.9,12.9-11.6,15.5c9.4,2.3,14.6,8.3,14.6,16.6
				c0,11.5-8.5,18.4-23.9,18.4H510V137.6z M523,147.4v18.8h32.5c7,0,11.6-3.5,11.6-9.6c0-6-4.2-9.2-11.7-9.2H523z M523,176v19.5h34
				c8.5,0,12.6-3.5,12.6-9.6c0-6.6-4.8-10-12.9-10H523z"/>
			<path class="st0" d="M604.4,137.6h13.3v67.7h-13.3V137.6z"/>
			<path class="st0" d="M644,137.6h44.6c16,0,24.7,8,24.7,21.3c0,12-7.8,19.7-21.8,20.7l23.9,25.7h-16.5l-22.9-24.9h-18.7v24.9H644
				V137.6z M657.2,147.9v22.3h29.1c8.8,0,13.6-3.9,13.6-11.1c0-7.4-4.6-11.2-13.6-11.2H657.2z"/>
			<path class="st0" d="M735.4,137.6h63.9v10.3h-51v17.8h45.6v10.2h-45.6v19.3H800v10.3h-64.6V137.6z"/>
		</g>
	</g>
</g>
</svg>
