<?xml version="1.0" encoding="utf-8"?>
<!-- Generator: Adobe Illustrator 21.1.0, SVG Export Plug-In . SVG Version: 6.00 Build 0)  -->
<svg version="1.1" id="Layer_1" xmlns="http://www.w3.org/2000/svg" xmlns:xlink="http://www.w3.org/1999/xlink" x="0px" y="0px"
	 viewBox="0 0 800 310" style="enable-background:new 0 0 800 310;" xml:space="preserve">
<style type="text/css">
	.st0{fill:#231F20;}
	.st1{filter:url(#Adobe_OpacityMaskFilter);}
	.st2{filter:url(#Adobe_OpacityMaskFilter_1_);}
	.st3{mask:url(#SVGID_1_);fill:url(#SVGID_2_);}
	.st4{fill:url(#SVGID_3_);}
	.st5{fill:#666666;}
	.st6{fill:none;}
	.st7{filter:url(#Adobe_OpacityMaskFilter_2_);}
	.st8{filter:url(#Adobe_OpacityMaskFilter_3_);}
	.st9{mask:url(#SVGID_4_);fill:url(#SVGID_5_);}
	.st10{fill:url(#SVGID_6_);}
	.st11{filter:url(#Adobe_OpacityMaskFilter_4_);}
	.st12{filter:url(#Adobe_OpacityMaskFilter_5_);}
	.st13{mask:url(#SVGID_7_);fill:url(#SVGID_8_);}
	.st14{fill:url(#SVGID_9_);}
</style>
<g>
	<g>
		<g>
			<path class="st0" d="M69.3,44L50.2,98.4c-0.2,0.6-0.2,1.3,0.1,1.9l17.9,35.2l-49.1,27.9c-0.6,0.3-1.4,0.1-1.7-0.5L6.8,140.7
				c-0.4-0.8-0.3-1.6,0.2-2.3l62-94.5C69,43.6,69.4,43.8,69.3,44z"/>
			<path class="st0" d="M165.5,116.9l40.7,86.8c0.4,0.9,0.2,2-0.5,2.7L98.7,310c-0.8,0.7-2,0.2-2-0.9v-95.2l67.5-65.2
				c0.5-0.4,0.7-1.1,0.7-1.7l0.2-30C165.1,116.8,165.4,116.7,165.5,116.9z"/>
			<defs>
				<filter id="Adobe_OpacityMaskFilter" filterUnits="userSpaceOnUse" x="164.5" y="116.8" width="41.9" height="88.4">
					<feFlood  style="flood-color:white;flood-opacity:1" result="back"/>
					<feBlend  in="SourceGraphic" in2="back" mode="normal"/>
				</filter>
			</defs>
			<mask maskUnits="userSpaceOnUse" x="164.5" y="116.8" width="41.9" height="88.4" id="SVGID_1_">
				<g class="st1">
					<defs>
						<filter id="Adobe_OpacityMaskFilter_1_" filterUnits="userSpaceOnUse" x="164.5" y="116.8" width="41.9" height="88.4">
							<feFlood  style="flood-color:white;flood-opacity:1" result="back"/>
							<feBlend  in="SourceGraphic" in2="back" mode="normal"/>
						</filter>
					</defs>
					<mask maskUnits="userSpaceOnUse" x="164.5" y="116.8" width="41.9" height="88.4" id="SVGID_1_">
						<g class="st2">
						</g>
					</mask>
					<linearGradient id="SVGID_2_" gradientUnits="userSpaceOnUse" x1="165.202" y1="116.9949" x2="183.202" y2="169.6616">
						<stop  offset="0" style="stop-color:#000000"/>
						<stop  offset="1" style="stop-color:#FFFFFF"/>
					</linearGradient>
					<path class="st3" d="M206.4,205.2c0.1-0.5,0-1-0.2-1.5l-40.7-86.8c-0.1-0.2-0.5-0.2-0.5,0.1l-0.2,30c0,0.4-0.1,0.8-0.4,1.2
						L206.4,205.2z"/>
				</g>
			</mask>
			<linearGradient id="SVGID_3_" gradientUnits="userSpaceOnUse" x1="154.021" y1="100.6579" x2="206.0211" y2="225.6581">
				<stop  offset="0" style="stop-color:#1F2320"/>
				<stop  offset="1" style="stop-color:#666666"/>
			</linearGradient>
			<path class="st4" d="M206.4,205.2c0.1-0.5,0-1-0.2-1.5l-40.7-86.8c-0.1-0.2-0.5-0.2-0.5,0.1l-0.2,30c0,0.4-0.1,0.8-0.4,1.2
				L206.4,205.2z"/>
			<path class="st5" d="M206.4,205.2c0.1-0.5,0-1-0.2-1.5l-2.1-4.5L167,151.6L206.4,205.2z"/>
			<path class="st6" d="M50.1,99.1c0-0.2,0-0.4,0.1-0.6L69.3,44c0.1-0.3-0.3-0.4-0.4-0.2L9.4,134.5l28.5-24.3L6.6,138.9l0,0
				L50.1,99.1z"/>
			<path class="st5" d="M9.4,134.5l-2.5,3.8c-0.1,0.2-0.2,0.4-0.3,0.6L43.2,105L9.4,134.5z"/>
			<path class="st0" d="M97.6,0l45.2,110.8c0.2,0.6,0.2,1.3,0,1.8l-73,171c-0.3,0.8-1.3,1-1.9,0.4L0.7,219.1c-0.9-0.8-1-2.2-0.3-3.1
				L96.2,86.1c0.3-0.4,0.5-0.9,0.5-1.4V0.2C96.7-0.3,97.4-0.5,97.6,0z"/>
			<defs>
				<filter id="Adobe_OpacityMaskFilter_2_" filterUnits="userSpaceOnUse" x="96.6" y="-0.3" width="45.6" height="109.7">
					<feFlood  style="flood-color:white;flood-opacity:1" result="back"/>
					<feBlend  in="SourceGraphic" in2="back" mode="normal"/>
				</filter>
			</defs>
			<mask maskUnits="userSpaceOnUse" x="96.6" y="-0.3" width="45.6" height="109.7" id="SVGID_4_">
				<g class="st7">
					<defs>
						<filter id="Adobe_OpacityMaskFilter_3_" filterUnits="userSpaceOnUse" x="96.6" y="-0.3" width="45.6" height="109.7">
							<feFlood  style="flood-color:white;flood-opacity:1" result="back"/>
							<feBlend  in="SourceGraphic" in2="back" mode="normal"/>
						</filter>
					</defs>
					<mask maskUnits="userSpaceOnUse" x="96.6" y="-0.3" width="45.6" height="109.7" id="SVGID_4_">
						<g class="st8">
						</g>
					</mask>
					<linearGradient id="SVGID_5_" gradientUnits="userSpaceOnUse" x1="95.4341" y1="40.7162" x2="151.2521" y2="107.299">
						<stop  offset="0" style="stop-color:#000000"/>
						<stop  offset="1" style="stop-color:#FFFFFF"/>
					</linearGradient>
					<path class="st9" d="M98.2,86.3l44,23.1L97.6,0c-0.2-0.5-0.9-0.3-0.9,0.2v84.5c0,0.2,0,0.5-0.1,0.7L98.2,86.3z"/>
				</g>
			</mask>
			<linearGradient id="SVGID_6_" gradientUnits="userSpaceOnUse" x1="95.4341" y1="40.7162" x2="151.2521" y2="107.299">
				<stop  offset="0" style="stop-color:#231F20"/>
				<stop  offset="1" style="stop-color:#666666"/>
			</linearGradient>
			<path class="st10" d="M98.2,86.3l44,23.1L97.6,0c-0.2-0.5-0.9-0.3-0.9,0.2v84.5c0,0.2,0,0.5-0.1,0.7L98.2,86.3z"/>
			<path class="st5" d="M105.3,90.3l37.6,21.3c0-0.3-0.1-0.5-0.2-0.8l-0.6-1.5l-44-23.1L105.3,90.3z"/>
		</g>
		<defs>
			<filter id="Adobe_OpacityMaskFilter_4_" filterUnits="userSpaceOnUse" x="9.4" y="43.7" width="59.9" height="90.8">
				<feFlood  style="flood-color:white;flood-opacity:1" result="back"/>
				<feBlend  in="SourceGraphic" in2="back" mode="normal"/>
			</filter>
		</defs>
		<mask maskUnits="userSpaceOnUse" x="9.4" y="43.7" width="59.9" height="90.8" id="SVGID_7_">
			<g class="st11">
				<defs>
					<filter id="Adobe_OpacityMaskFilter_5_" filterUnits="userSpaceOnUse" x="9.4" y="43.7" width="59.9" height="90.8">
						<feFlood  style="flood-color:white;flood-opacity:1" result="back"/>
						<feBlend  in="SourceGraphic" in2="back" mode="normal"/>
					</filter>
				</defs>
				<mask maskUnits="userSpaceOnUse" x="9.4" y="43.7" width="59.9" height="90.8" id="SVGID_7_">
					<g class="st12">
					</g>
				</mask>
				<linearGradient id="SVGID_8_" gradientUnits="userSpaceOnUse" x1="68.3099" y1="58.1502" x2="15.2389" y2="138.042">
					<stop  offset="0" style="stop-color:#000000"/>
					<stop  offset="0.9991" style="stop-color:#FFFFFF"/>
				</linearGradient>
				<path class="st13" d="M50.1,99.1c0-0.2,0-0.4,0.1-0.6L69.3,44c0.1-0.3-0.3-0.4-0.4-0.2L9.4,134.5L50.1,99.1z"/>
			</g>
		</mask>
		<linearGradient id="SVGID_9_" gradientUnits="userSpaceOnUse" x1="68.3099" y1="58.1502" x2="15.2389" y2="138.042">
			<stop  offset="0" style="stop-color:#1F2320"/>
			<stop  offset="3.031810e-02" style="stop-color:#1F2320"/>
			<stop  offset="0.9991" style="stop-color:#666666"/>
		</linearGradient>
		<path class="st14" d="M50.1,99.1c0-0.2,0-0.4,0.1-0.6L69.3,44c0.1-0.3-0.3-0.4-0.4-0.2L9.4,134.5L50.1,99.1z"/>
	</g>
	<g>
		<polygon class="st6" points="319.5,178.5 347,178.5 333.3,152.5 		"/>
		<path class="st6" d="M556.8,177.2h-32.7V195h33c7.7,0,11.7-2.9,11.7-8.7C568.8,178.4,561.3,177.2,556.8,177.2z"/>
		<path class="st6" d="M566.4,157c0-6.9-5.9-8.3-10.8-8.3h-31.4v17h31.5C562.4,165.7,566.4,162.5,566.4,157z"/>
		<path class="st6" d="M686,149.2h-28.1v20.6H686c5.8,0,12.7-1.8,12.7-10.2C698.7,152.7,694.4,149.2,686,149.2z"/>
		<path class="st0" d="M326.3,137.3L289,206.4h15.8l8.5-16.1h40l8.5,16.1h16.3l-37.3-69.1H326.3z M347,178.5h-27.5l13.8-26
			L347,178.5z"/>
		<polygon class="st0" points="438.7,181.3 407.2,137.3 391.9,137.3 391.9,206.4 405.9,206.4 405.9,157.7 432.4,195 444.7,195 
			471.1,157.2 471.1,206.4 485.1,206.4 485.1,137.3 469.8,137.3 		"/>
		<path class="st0" d="M571.3,170.6c6.3-2.9,9.8-8.4,9.8-15.3c0-11.3-8.6-18-23.1-18h-48.4v69.1h49.9c15.7,0,24.6-7,24.6-19.1
			C584.1,179.4,579.5,173.4,571.3,170.6z M524.2,165.7v-17h31.4c4.9,0,10.8,1.4,10.8,8.3c0,5.4-4,8.7-10.7,8.7H524.2z M568.8,186.3
			c0,5.8-3.9,8.7-11.7,8.7h-33v-17.8h32.7C561.3,177.2,568.8,178.4,568.8,186.3z"/>
		<rect x="603.6" y="137.3" class="st0" width="14.9" height="69.1"/>
		<path class="st0" d="M713.6,159.3c0-14-9.3-22-25.4-22H643v69.1h14.9v-24.8h17.4l22.8,24.8h18.8l-23.9-25.8
			C705.9,179.1,713.6,171.3,713.6,159.3z M698.7,159.5c0,8.5-6.9,10.2-12.7,10.2h-28.1v-20.6H686
			C694.4,149.2,698.7,152.7,698.7,159.5z"/>
		<polygon class="st0" points="748.6,194.5 748.6,177 793.9,177 793.9,165.2 748.6,165.2 748.6,149.2 799.3,149.2 799.3,137.3 
			734,137.3 734,206.4 800,206.4 800,194.5 		"/>
	</g>
</g>
</svg>
