<?xml version="1.0" encoding="utf-8"?>
<!-- Generator: Adobe Illustrator 21.1.0, SVG Export Plug-In . SVG Version: 6.00 Build 0)  -->
<svg version="1.1" id="Layer_1" xmlns="http://www.w3.org/2000/svg" xmlns:xlink="http://www.w3.org/1999/xlink" x="0px" y="0px"
	 viewBox="0 0 300 400" style="enable-background:new 0 0 300 400;" xml:space="preserve">
<style type="text/css">
	.st0{fill:#231F20;}
	.st1{fill:none;}
</style>
<g>
	<path class="st0" d="M252.8,203.6L212.2,117c-0.1-0.2-0.5-0.2-0.5,0.1l-0.2,30c0,0.6-0.3,1.3-0.7,1.7l-62.5,60.4l41.1-96.4
		c0.3-0.6,0.3-1.2,0-1.8L144.4,0.3c-0.2-0.5-0.9-0.3-0.9,0.2v84.3c0,0.5-0.2,1-0.5,1.4l-31.4,42.6l-14.4-28.4
		c-0.3-0.6-0.3-1.3-0.1-1.9l19.1-54.3c0.1-0.3-0.3-0.4-0.4-0.2l-61.9,94.3c-0.5,0.7-0.5,1.6-0.2,2.3l10.6,22.1
		c0.3,0.6,1.1,0.9,1.7,0.5l34.6-19.6l-53.2,72.2c-0.7,1-0.6,2.3,0.3,3.1l67,64.8c0.6,0.6,1.6,0.4,1.9-0.4l26.9-62.9v88.3
		c0,1.1,1.3,1.6,2,0.9l106.8-103.3C253,205.6,253.2,204.5,252.8,203.6z"/>
	<g>
		<polygon class="st1" points="17.9,383.6 34,383.6 26,368.3 		"/>
		<path class="st1" d="M157.2,382.9h-19.2v10.4h19.4c4.5,0,6.9-1.7,6.9-5.1C164.3,383.6,159.9,382.9,157.2,382.9z"/>
		<path class="st1" d="M162.8,371c0-4-3.4-4.9-6.3-4.9h-18.4v10h18.5C160.5,376.1,162.8,374.2,162.8,371z"/>
		<path class="st1" d="M233.1,366.4h-16.5v12.1h16.5c3.4,0,7.5-1,7.5-6C240.5,368.5,238,366.4,233.1,366.4z"/>
		<path class="st0" d="M21.9,359.4L0,400h9.3l5-9.4h23.5l5,9.4h9.6l-21.9-40.6H21.9z M34,383.6H17.9l8.1-15.3L34,383.6z"/>
		<polygon class="st0" points="87.9,385.2 69.4,359.4 60.4,359.4 60.4,400 68.6,400 68.6,371.4 84.2,393.3 91.4,393.3 106.9,371.1 
			106.9,400 115.1,400 115.1,359.4 106.1,359.4 		"/>
		<path class="st0" d="M165.7,379c3.7-1.7,5.8-4.9,5.8-9c0-6.6-5.1-10.6-13.6-10.6h-28.4V400h29.3c9.2,0,14.5-4.1,14.5-11.2
			C173.2,384.1,170.5,380.6,165.7,379z M138.1,376.1v-10h18.4c2.9,0,6.3,0.8,6.3,4.9c0,3.2-2.3,5.1-6.3,5.1H138.1z M164.3,388.2
			c0,3.4-2.3,5.1-6.9,5.1h-19.4v-10.4h19.2C159.9,382.9,164.3,383.6,164.3,388.2z"/>
		<rect x="184.7" y="359.4" class="st0" width="8.7" height="40.6"/>
		<path class="st0" d="M249.3,372.4c0-8.2-5.4-12.9-14.9-12.9h-26.6V400h8.7v-14.5h10.2l13.4,14.5h11l-14.1-15.1
			C244.8,384,249.3,379.4,249.3,372.4z M240.5,372.5c0,5-4.1,6-7.5,6h-16.5v-12.1h16.5C238,366.4,240.5,368.5,240.5,372.5z"/>
		<polygon class="st0" points="269.8,393 269.8,382.8 296.4,382.8 296.4,375.8 269.8,375.8 269.8,366.4 299.6,366.4 299.6,359.4 
			261.2,359.4 261.2,400 300,400 300,393 		"/>
	</g>
</g>
</svg>
