<?xml version="1.0" encoding="utf-8"?>
<!-- Generator: Adobe Illustrator 21.1.0, SVG Export Plug-In . SVG Version: 6.00 Build 0)  -->
<svg version="1.1" id="Layer_1" xmlns="http://www.w3.org/2000/svg" xmlns:xlink="http://www.w3.org/1999/xlink" x="0px" y="0px"
	 viewBox="0 0 300 400" style="enable-background:new 0 0 300 400;" xml:space="preserve">
<style type="text/css">
	.st0{fill:#E5E6E7;}
</style>
<g>
	<path class="st0" d="M252.8,203.6L212.2,117c-0.1-0.2-0.5-0.2-0.5,0.1l-0.2,30c0,0.6-0.3,1.3-0.7,1.7l-62.5,60.4l41.1-96.4
		c0.3-0.6,0.3-1.2,0-1.8L144.4,0.3c-0.2-0.5-0.9-0.3-0.9,0.2v84.3c0,0.5-0.2,1-0.5,1.4l-31.4,42.6l-14.4-28.4
		c-0.3-0.6-0.3-1.3-0.1-1.9l19.1-54.3c0.1-0.3-0.3-0.4-0.4-0.2l-61.9,94.3c-0.5,0.7-0.5,1.6-0.2,2.3l10.6,22.1
		c0.3,0.6,1.1,0.9,1.7,0.5l34.6-19.6l-53.2,72.2c-0.7,1-0.6,2.3,0.3,3.1l67,64.8c0.6,0.6,1.6,0.4,1.9-0.4l26.9-62.9v88.3
		c0,1.1,1.3,1.6,2,0.9l106.8-103.3C253,205.6,253.2,204.5,252.8,203.6z"/>
	<g>
		<g>
			<path class="st0" d="M37.4,390.5H13.2l-5,9.5H0l21.4-39.8h8L50.8,400h-8.5L37.4,390.5z M34.2,384.6l-8.9-16.9l-9,16.9H34.2z"/>
			<path class="st0" d="M60.3,360.2h8.3l18.8,26.3l18.6-26.3h8.2V400H107v-30.1l-16.3,23.3h-6.8l-16.4-23.1V400h-7.3V360.2z"/>
			<path class="st0" d="M129.7,360.2h28.1c8.1,0,13.1,3.7,13.1,10.1c0,4.1-2.3,7.6-6.8,9.1c5.5,1.4,8.6,4.9,8.6,9.8
				c0,6.8-5,10.8-14,10.8h-28.9V360.2z M137.3,366v11h19.1c4.1,0,6.8-2,6.8-5.6c0-3.5-2.4-5.4-6.9-5.4H137.3z M137.3,382.8v11.5
				h19.9c5,0,7.4-2,7.4-5.6c0-3.9-2.8-5.8-7.6-5.8H137.3z"/>
			<path class="st0" d="M185.2,360.2h7.8V400h-7.8V360.2z"/>
			<path class="st0" d="M208.4,360.2h26.2c9.4,0,14.5,4.7,14.5,12.5c0,7-4.6,11.6-12.8,12.2l14,15.1h-9.7l-13.5-14.6h-11V400h-7.8
				V360.2z M216.2,366.3v13.1h17.1c5.2,0,8-2.3,8-6.5c0-4.3-2.7-6.6-8-6.6H216.2z"/>
			<path class="st0" d="M262.1,360.2h37.5v6h-29.9v10.5h26.8v6h-26.8V394H300v6h-37.9V360.2z"/>
		</g>
	</g>
</g>
</svg>
