<?xml version="1.0" encoding="utf-8"?>
<!-- Generator: Adobe Illustrator 21.1.0, SVG Export Plug-In . SVG Version: 6.00 Build 0)  -->
<svg version="1.1" id="Layer_1" xmlns="http://www.w3.org/2000/svg" xmlns:xlink="http://www.w3.org/1999/xlink" x="0px" y="0px"
	 viewBox="0 0 800 310" style="enable-background:new 0 0 800 310;" xml:space="preserve">
<style type="text/css">
	.st0{fill:#231F20;}
	.st1{fill:none;}
</style>
<g>
	<path class="st0" d="M205.8,203.6L165.2,117c-0.1-0.2-0.5-0.2-0.5,0.1l-0.2,30c0,0.6-0.3,1.3-0.7,1.7l-62.5,60.4l41.1-96.4
		c0.3-0.6,0.3-1.2,0-1.8L97.4,0.3c-0.2-0.5-0.9-0.3-0.9,0.2v84.3c0,0.5-0.2,1-0.5,1.4l-31.4,42.6l-14.4-28.4
		c-0.3-0.6-0.3-1.3-0.1-1.9l19.1-54.3c0.1-0.3-0.3-0.4-0.4-0.2L6.9,138.4c-0.5,0.7-0.5,1.6-0.2,2.3l10.6,22.1
		c0.3,0.6,1.1,0.9,1.7,0.5l34.6-19.6L0.5,215.9c-0.7,1-0.6,2.3,0.3,3.1l67,64.8c0.6,0.6,1.6,0.4,1.9-0.4l26.9-62.9v88.3
		c0,1.1,1.3,1.6,2,0.9l106.8-103.3C206.1,205.6,206.3,204.5,205.8,203.6z"/>
	<g>
		<polygon class="st1" points="319.5,178.5 347,178.5 333.3,152.5 		"/>
		<path class="st1" d="M556.8,177.2h-32.7V195h33c7.7,0,11.7-2.9,11.7-8.7C568.8,178.4,561.3,177.2,556.8,177.2z"/>
		<path class="st1" d="M566.4,157c0-6.9-5.9-8.3-10.8-8.3h-31.4v17h31.5C562.4,165.7,566.4,162.5,566.4,157z"/>
		<path class="st1" d="M686,149.2h-28.1v20.6H686c5.8,0,12.7-1.8,12.7-10.2C698.7,152.7,694.4,149.2,686,149.2z"/>
		<path class="st0" d="M326.3,137.3L289,206.4h15.8l8.5-16.1h40l8.5,16.1h16.3l-37.3-69.1H326.3z M347,178.5h-27.5l13.8-26
			L347,178.5z"/>
		<polygon class="st0" points="438.7,181.3 407.2,137.3 391.9,137.3 391.9,206.4 405.9,206.4 405.9,157.7 432.4,195 444.7,195 
			471.1,157.2 471.1,206.4 485.1,206.4 485.1,137.3 469.8,137.3 		"/>
		<path class="st0" d="M571.3,170.6c6.3-2.9,9.8-8.4,9.8-15.3c0-11.3-8.6-18-23.1-18h-48.4v69.1h49.9c15.7,0,24.6-7,24.6-19.1
			C584.1,179.4,579.5,173.4,571.3,170.6z M524.2,165.7v-17h31.4c4.9,0,10.8,1.4,10.8,8.3c0,5.4-4,8.7-10.7,8.7H524.2z M568.8,186.3
			c0,5.8-3.9,8.7-11.7,8.7h-33v-17.8h32.7C561.3,177.2,568.8,178.4,568.8,186.3z"/>
		<rect x="603.6" y="137.3" class="st0" width="14.9" height="69.1"/>
		<path class="st0" d="M713.6,159.3c0-14-9.3-22-25.4-22H643v69.1h14.9v-24.8h17.4l22.8,24.8h18.8l-23.9-25.8
			C705.9,179.1,713.6,171.3,713.6,159.3z M698.7,159.5c0,8.5-6.9,10.2-12.7,10.2h-28.1v-20.6H686
			C694.4,149.2,698.7,152.7,698.7,159.5z"/>
		<polygon class="st0" points="748.6,194.5 748.6,177 793.9,177 793.9,165.2 748.6,165.2 748.6,149.2 799.3,149.2 799.3,137.3 
			734,137.3 734,206.4 800,206.4 800,194.5 		"/>
	</g>
</g>
</svg>
