<?xml version="1.0" encoding="utf-8"?>
<!-- Generator: Adobe Illustrator 21.1.0, SVG Export Plug-In . SVG Version: 6.00 Build 0)  -->
<svg version="1.1" id="Layer_1" xmlns="http://www.w3.org/2000/svg" xmlns:xlink="http://www.w3.org/1999/xlink" x="0px" y="0px"
	 viewBox="0 0 300 400" style="enable-background:new 0 0 300 400;" xml:space="preserve">
<style type="text/css">
	.st0{fill:#231F20;}
	.st1{filter:url(#Adobe_OpacityMaskFilter);}
	.st2{filter:url(#Adobe_OpacityMaskFilter_1_);}
	.st3{mask:url(#SVGID_1_);fill:url(#SVGID_2_);}
	.st4{fill:url(#SVGID_3_);}
	.st5{fill:#666666;}
	.st6{fill:none;}
	.st7{filter:url(#Adobe_OpacityMaskFilter_2_);}
	.st8{filter:url(#Adobe_OpacityMaskFilter_3_);}
	.st9{mask:url(#SVGID_4_);fill:url(#SVGID_5_);}
	.st10{fill:url(#SVGID_6_);}
	.st11{filter:url(#Adobe_OpacityMaskFilter_4_);}
	.st12{filter:url(#Adobe_OpacityMaskFilter_5_);}
	.st13{mask:url(#SVGID_7_);fill:url(#SVGID_8_);}
	.st14{fill:url(#SVGID_9_);}
</style>
<g>
	<g>
		<g>
			<path class="st0" d="M116.1,44.3L97,98.7c-0.2,0.6-0.2,1.3,0.1,1.9l17.9,35.2l-49.1,27.9c-0.6,0.3-1.4,0.1-1.7-0.5L53.5,141
				c-0.4-0.8-0.3-1.6,0.2-2.3l62-94.5C115.8,43.9,116.2,44.1,116.1,44.3z"/>
			<path class="st0" d="M212.3,117.2L253,204c0.4,0.9,0.2,2-0.5,2.7l-107,103.5c-0.8,0.7-2,0.2-2-0.9v-95.2l67.5-65.2
				c0.5-0.4,0.7-1.1,0.7-1.7l0.2-30C211.8,117,212.2,117,212.3,117.2z"/>
			<defs>
				<filter id="Adobe_OpacityMaskFilter" filterUnits="userSpaceOnUse" x="211.3" y="117.1" width="41.9" height="88.4">
					<feFlood  style="flood-color:white;flood-opacity:1" result="back"/>
					<feBlend  in="SourceGraphic" in2="back" mode="normal"/>
				</filter>
			</defs>
			<mask maskUnits="userSpaceOnUse" x="211.3" y="117.1" width="41.9" height="88.4" id="SVGID_1_">
				<g class="st1">
					<defs>
						<filter id="Adobe_OpacityMaskFilter_1_" filterUnits="userSpaceOnUse" x="211.3" y="117.1" width="41.9" height="88.4">
							<feFlood  style="flood-color:white;flood-opacity:1" result="back"/>
							<feBlend  in="SourceGraphic" in2="back" mode="normal"/>
						</filter>
					</defs>
					<mask maskUnits="userSpaceOnUse" x="211.3" y="117.1" width="41.9" height="88.4" id="SVGID_1_">
						<g class="st2">
						</g>
					</mask>
					<linearGradient id="SVGID_2_" gradientUnits="userSpaceOnUse" x1="211.9903" y1="117.2843" x2="229.9904" y2="169.951">
						<stop  offset="0" style="stop-color:#000000"/>
						<stop  offset="1" style="stop-color:#FFFFFF"/>
					</linearGradient>
					<path class="st3" d="M253.2,205.5c0.1-0.5,0-1-0.2-1.5l-40.7-86.8c-0.1-0.2-0.5-0.2-0.5,0.1l-0.2,30c0,0.4-0.1,0.8-0.4,1.2
						L253.2,205.5z"/>
				</g>
			</mask>
			<linearGradient id="SVGID_3_" gradientUnits="userSpaceOnUse" x1="200.8093" y1="100.9473" x2="252.8094" y2="225.9475">
				<stop  offset="0" style="stop-color:#1F2320"/>
				<stop  offset="1" style="stop-color:#666666"/>
			</linearGradient>
			<path class="st4" d="M253.2,205.5c0.1-0.5,0-1-0.2-1.5l-40.7-86.8c-0.1-0.2-0.5-0.2-0.5,0.1l-0.2,30c0,0.4-0.1,0.8-0.4,1.2
				L253.2,205.5z"/>
			<path class="st5" d="M253.2,205.5c0.1-0.5,0-1-0.2-1.5l-2.1-4.5l-37.1-47.6L253.2,205.5z"/>
			<path class="st6" d="M96.8,99.4c0-0.2,0-0.4,0.1-0.6l19.1-54.4c0.1-0.3-0.3-0.4-0.4-0.2l-59.5,90.7l28.5-24.3l-31.3,28.7l0,0
				L96.8,99.4z"/>
			<path class="st5" d="M56.2,134.8l-2.5,3.8c-0.1,0.2-0.2,0.4-0.3,0.6L90,105.3L56.2,134.8z"/>
			<path class="st0" d="M144.4,0.3l45.2,110.8c0.2,0.6,0.2,1.3,0,1.8l-73,171c-0.3,0.8-1.3,1-1.9,0.4l-67.1-64.9
				c-0.9-0.8-1-2.2-0.3-3.1L143,86.4c0.3-0.4,0.5-0.9,0.5-1.4V0.5C143.5,0,144.2-0.2,144.4,0.3z"/>
			<defs>
				<filter id="Adobe_OpacityMaskFilter_2_" filterUnits="userSpaceOnUse" x="143.3" y="0" width="45.6" height="109.7">
					<feFlood  style="flood-color:white;flood-opacity:1" result="back"/>
					<feBlend  in="SourceGraphic" in2="back" mode="normal"/>
				</filter>
			</defs>
			<mask maskUnits="userSpaceOnUse" x="143.3" y="0" width="45.6" height="109.7" id="SVGID_4_">
				<g class="st7">
					<defs>
						<filter id="Adobe_OpacityMaskFilter_3_" filterUnits="userSpaceOnUse" x="143.3" y="0" width="45.6" height="109.7">
							<feFlood  style="flood-color:white;flood-opacity:1" result="back"/>
							<feBlend  in="SourceGraphic" in2="back" mode="normal"/>
						</filter>
					</defs>
					<mask maskUnits="userSpaceOnUse" x="143.3" y="0" width="45.6" height="109.7" id="SVGID_4_">
						<g class="st8">
						</g>
					</mask>
					<linearGradient id="SVGID_5_" gradientUnits="userSpaceOnUse" x1="142.2225" y1="41.0056" x2="198.0405" y2="107.5884">
						<stop  offset="0" style="stop-color:#000000"/>
						<stop  offset="1" style="stop-color:#FFFFFF"/>
					</linearGradient>
					<path class="st9" d="M145,86.6l44,23.1L144.4,0.3c-0.2-0.5-0.9-0.3-0.9,0.2V85c0,0.2,0,0.5-0.1,0.7L145,86.6z"/>
				</g>
			</mask>
			<linearGradient id="SVGID_6_" gradientUnits="userSpaceOnUse" x1="142.2225" y1="41.0056" x2="198.0405" y2="107.5884">
				<stop  offset="0" style="stop-color:#231F20"/>
				<stop  offset="1" style="stop-color:#666666"/>
			</linearGradient>
			<path class="st10" d="M145,86.6l44,23.1L144.4,0.3c-0.2-0.5-0.9-0.3-0.9,0.2V85c0,0.2,0,0.5-0.1,0.7L145,86.6z"/>
			<path class="st5" d="M152.1,90.6l37.6,21.3c0-0.3-0.1-0.5-0.2-0.8l-0.6-1.5l-44-23.1L152.1,90.6z"/>
		</g>
		<defs>
			<filter id="Adobe_OpacityMaskFilter_4_" filterUnits="userSpaceOnUse" x="56.2" y="44" width="59.9" height="90.8">
				<feFlood  style="flood-color:white;flood-opacity:1" result="back"/>
				<feBlend  in="SourceGraphic" in2="back" mode="normal"/>
			</filter>
		</defs>
		<mask maskUnits="userSpaceOnUse" x="56.2" y="44" width="59.9" height="90.8" id="SVGID_7_">
			<g class="st11">
				<defs>
					<filter id="Adobe_OpacityMaskFilter_5_" filterUnits="userSpaceOnUse" x="56.2" y="44" width="59.9" height="90.8">
						<feFlood  style="flood-color:white;flood-opacity:1" result="back"/>
						<feBlend  in="SourceGraphic" in2="back" mode="normal"/>
					</filter>
				</defs>
				<mask maskUnits="userSpaceOnUse" x="56.2" y="44" width="59.9" height="90.8" id="SVGID_7_">
					<g class="st12">
					</g>
				</mask>
				<linearGradient id="SVGID_8_" gradientUnits="userSpaceOnUse" x1="115.0983" y1="58.4396" x2="62.0273" y2="138.3314">
					<stop  offset="0" style="stop-color:#000000"/>
					<stop  offset="0.9991" style="stop-color:#FFFFFF"/>
				</linearGradient>
				<path class="st13" d="M96.8,99.4c0-0.2,0-0.4,0.1-0.6l19.1-54.4c0.1-0.3-0.3-0.4-0.4-0.2l-59.5,90.7L96.8,99.4z"/>
			</g>
		</mask>
		<linearGradient id="SVGID_9_" gradientUnits="userSpaceOnUse" x1="115.0983" y1="58.4396" x2="62.0273" y2="138.3314">
			<stop  offset="0" style="stop-color:#1F2320"/>
			<stop  offset="3.031810e-02" style="stop-color:#1F2320"/>
			<stop  offset="0.9991" style="stop-color:#666666"/>
		</linearGradient>
		<path class="st14" d="M96.8,99.4c0-0.2,0-0.4,0.1-0.6l19.1-54.4c0.1-0.3-0.3-0.4-0.4-0.2l-59.5,90.7L96.8,99.4z"/>
	</g>
	<g>
		<polygon class="st6" points="17.9,383.6 34,383.6 26,368.3 		"/>
		<path class="st6" d="M157.2,382.9h-19.2v10.4h19.4c4.5,0,6.9-1.7,6.9-5.1C164.3,383.6,159.9,382.9,157.2,382.9z"/>
		<path class="st6" d="M162.8,371c0-4-3.4-4.9-6.3-4.9h-18.4v10h18.5C160.5,376.1,162.8,374.2,162.8,371z"/>
		<path class="st6" d="M233.1,366.4h-16.5v12.1h16.5c3.4,0,7.5-1,7.5-6C240.5,368.5,238,366.4,233.1,366.4z"/>
		<path class="st0" d="M21.9,359.4L0,400h9.3l5-9.4h23.5l5,9.4h9.6l-21.9-40.6H21.9z M34,383.6H17.9l8.1-15.3L34,383.6z"/>
		<polygon class="st0" points="87.9,385.2 69.4,359.4 60.4,359.4 60.4,400 68.6,400 68.6,371.4 84.2,393.3 91.4,393.3 106.9,371.1 
			106.9,400 115.1,400 115.1,359.4 106.1,359.4 		"/>
		<path class="st0" d="M165.7,379c3.7-1.7,5.8-4.9,5.8-9c0-6.6-5.1-10.6-13.6-10.6h-28.4V400h29.3c9.2,0,14.5-4.1,14.5-11.2
			C173.2,384.1,170.5,380.6,165.7,379z M138.1,376.1v-10h18.4c2.9,0,6.3,0.8,6.3,4.9c0,3.2-2.3,5.1-6.3,5.1H138.1z M164.3,388.2
			c0,3.4-2.3,5.1-6.9,5.1h-19.4v-10.4h19.2C159.9,382.9,164.3,383.6,164.3,388.2z"/>
		<rect x="184.7" y="359.4" class="st0" width="8.7" height="40.6"/>
		<path class="st0" d="M249.3,372.4c0-8.2-5.4-12.9-14.9-12.9h-26.6V400h8.7v-14.5h10.2l13.4,14.5h11l-14.1-15.1
			C244.8,384,249.3,379.4,249.3,372.4z M240.5,372.5c0,5-4.1,6-7.5,6h-16.5v-12.1h16.5C238,366.4,240.5,368.5,240.5,372.5z"/>
		<polygon class="st0" points="269.8,393 269.8,382.8 296.4,382.8 296.4,375.8 269.8,375.8 269.8,366.4 299.6,366.4 299.6,359.4 
			261.2,359.4 261.2,400 300,400 300,393 		"/>
	</g>
</g>
</svg>
