<svg id="symbol-simplyfied-black" xmlns="http://www.w3.org/2000/svg" xmlns:xlink="http://www.w3.org/1999/xlink" width="328.848" height="493.973" viewBox="0 0 328.848 493.973">
  <defs>
    <linearGradient id="linear-gradient" x1="0.686" y1="0.023" x2="0.48" y2="1" gradientUnits="objectBoundingBox">
      <stop offset="0"/>
      <stop offset="0.671" stop-color="#1e2033"/>
      <stop offset="1" stop-color="#34344e"/>
    </linearGradient>
  </defs>
  <g id="_2171347963424" transform="translate(0 0)">
    <path id="Path_5782" data-name="Path 5782" d="M913.4,2619.748l-30.491,86.511a3.791,3.791,0,0,0,.2,2.985l28.478,55.938-78.251,44.333a1.905,1.905,0,0,1-2.657-.833l-16.923-35.224a3.8,3.8,0,0,1,.249-3.73l98.721-150.317A.382.382,0,0,1,913.4,2619.748Z" transform="translate(-802.966 -2549.229)" fill="#1e2033"/>
    <path id="Path_5783" data-name="Path 5783" d="M5290.242,6152.265l64.814,138.059a3.8,3.8,0,0,1-.8,4.35L5183.833,6459.3a1.908,1.908,0,0,1-3.232-1.369v-151.35L5288.055,6202.9a3.808,3.808,0,0,0,1.163-2.712l.3-47.764A.382.382,0,0,1,5290.242,6152.265Z" transform="translate(-5026.571 -5965.86)" fill="#1e2033"/>
    <path id="Path_5784" data-name="Path 5784" d="M1064.848,7056.929l-92.988,18.358,12.085,25.156a1.9,1.9,0,0,0,2.659.831h0l78.249-44.334Z" transform="translate(-956.234 -6840.989)"/>
    <path id="Path_5785" data-name="Path 5785" d="M888.245,2707.259l-69.135,63.354a3.828,3.828,0,0,1,.435-.9l98.72-150.317h0a.37.37,0,0,1,.312-.173h0a.383.383,0,0,1,.369.512l-30.494,86.508h0A3.8,3.8,0,0,0,888.245,2707.259Z" transform="translate(-808.507 -2549.213)" fill="#34344e"/>
    <path id="Path_5786" data-name="Path 5786" d="M5242.8,9028.419l-62.128,145.348v-85.4Z" transform="translate(-5026.637 -8747.645)"/>
    <path id="Path_5787" data-name="Path 5787" d="M8533.459,6292.755l-66.68-90.552a3.773,3.773,0,0,0,.553-1.945l.3-47.765h0a.375.375,0,0,1,.381-.377h0a.369.369,0,0,1,.346.218L8533.17,6290.4h0A3.783,3.783,0,0,1,8533.459,6292.755Z" transform="translate(-8204.684 -5965.931)" fill="#34344e"/>
    <path id="Path_5788" data-name="Path 5788" d="M652.142,490.828l71.963,176.278a3.79,3.79,0,0,1-.024,2.929L607.839,941.98a1.906,1.906,0,0,1-3.076.62L497.843,839.322a3.8,3.8,0,0,1-.418-4.992l152.507-206.6a3.809,3.809,0,0,0,.743-2.257V491.116A.762.762,0,0,1,652.142,490.828Z" transform="translate(-496.683 -490.354)" fill="url(#linear-gradient)"/>
    <path id="Path_5789" data-name="Path 5789" d="M5174.229,626.619l73.882,41.768a3.835,3.835,0,0,0-.278-1.267h0L5175.87,490.844a.738.738,0,0,0-.7-.474h0a.749.749,0,0,0-.769.761h0V625.486A3.754,3.754,0,0,1,5174.229,626.619Z" transform="translate(-5020.409 -490.369)" fill="#34344e"/>
  </g>
</svg>
