<svg id="symbol-mono-black" xmlns="http://www.w3.org/2000/svg" width="328.848" height="493.974" viewBox="0 0 328.848 493.974">
  <path id="Path_5782" data-name="Path 5782" d="M913.4,2619.748l-30.491,86.512a3.79,3.79,0,0,0,.2,2.985l28.478,55.938-78.251,44.333a1.9,1.9,0,0,1-2.657-.833l-16.923-35.224a3.8,3.8,0,0,1,.249-3.73l98.721-150.317A.382.382,0,0,1,913.4,2619.748Z" transform="translate(-802.964 -2549.229)"/>
  <path id="Path_5783" data-name="Path 5783" d="M5290.242,6152.265l64.814,138.06a3.8,3.8,0,0,1-.8,4.35L5183.833,6459.3a1.908,1.908,0,0,1-3.232-1.369v-151.35L5288.055,6202.9a3.809,3.809,0,0,0,1.163-2.712l.3-47.765A.382.382,0,0,1,5290.242,6152.265Z" transform="translate(-5026.571 -5965.861)"/>
  <path id="Path_5788" data-name="Path 5788" d="M652.142,490.828l71.963,176.278a3.79,3.79,0,0,1-.024,2.929L607.839,941.98a1.907,1.907,0,0,1-3.076.62L497.843,839.322a3.8,3.8,0,0,1-.418-4.992l152.507-206.6a3.809,3.809,0,0,0,.743-2.257V491.116A.762.762,0,0,1,652.142,490.828Z" transform="translate(-496.683 -490.354)"/>
</svg>
