<svg width="96" height="96" viewBox="0 0 96 96" fill="none" xmlns="http://www.w3.org/2000/svg">
<g clip-path="url(#clip0_8289_754)">
<rect width="96" height="96" rx="27" fill="#D7FF00"/>
<path d="M31.4342 59.7775C30.7331 59.7787 30.0388 59.6429 29.3909 59.3751C28.743 59.1074 28.1544 58.7127 27.6587 58.2169C27.1631 57.7212 26.7701 57.1324 26.5025 56.4845C26.2349 55.8366 26.0978 55.1425 26.0991 54.4415V34.8009C26.0991 23.2419 35.9222 13.8204 47.9992 13.8204C60.0762 13.8204 69.8991 23.2429 69.8991 34.8009V54.4298C69.8989 55.2599 69.7032 56.0781 69.3279 56.8185C68.9527 57.5589 68.4084 58.2005 67.7391 58.6915C67.0761 59.2006 66.2999 59.5428 65.4766 59.6876C64.6533 59.8325 63.8071 59.7757 63.0101 59.5236L50.3521 55.6798C49.5798 55.482 48.7828 55.3978 47.9862 55.4298C47.2133 55.4059 46.4405 55.4792 45.6861 55.6486L33.0091 59.5431C32.498 59.6962 31.9677 59.7754 31.4342 59.7775ZM47.9911 24.4923C41.8011 24.4923 36.7641 29.1349 36.7641 34.8029V47.2365L42.5252 45.4552C44.2986 44.9637 46.1331 44.7268 47.9732 44.754C49.822 44.7293 51.665 44.9661 53.4481 45.4552L59.2171 47.2365V34.8029C59.2171 29.1339 54.1811 24.4923 47.9961 24.4923H47.9911Z" fill="#1E2433"/>
<path d="M26.1001 50.721V40.247L36.7561 38.784V47.235L42.5301 45.454C44.3011 44.9687 46.132 44.7374 47.9681 44.767C49.8179 44.7396 51.6625 44.9711 53.4481 45.455L59.2171 47.235V38.735L69.8851 40.206V48.981L68.2401 50.721H26.1001Z" fill="black"/>
<path d="M47.9742 43.4839C55.2272 43.4839 59.1232 44.2459 70.0202 45.5549C75.5872 46.8299 79.7872 50.9009 79.7872 55.0249V69.7249C79.7872 73.4089 80.4442 77.7469 66.4952 80.2529C52.5462 82.7589 40.9312 82.8849 28.3592 80.2529C15.7872 77.6209 16.2092 73.4059 16.2092 69.7219V55.0219C16.2092 50.9089 20.4092 46.8469 25.9782 45.5719C36.7342 44.0649 40.4702 43.4839 47.9742 43.4839Z" fill="#343B4E"/>
<path d="M28.3541 80.247C15.7921 77.624 16.2121 73.411 16.2121 69.715V55.024C16.2121 50.911 20.4121 46.846 25.9791 45.583C36.7291 44.063 40.4711 43.483 47.9751 43.483H47.9981V82.167C47.5608 82.173 47.1234 82.1763 46.6861 82.177C40.5248 82.1748 34.3807 81.528 28.3541 80.247Z" fill="url(#paint0_linear_8289_754)"/>
</g>
<defs>
<linearGradient id="paint0_linear_8289_754" x1="18.5945" y1="62.83" x2="47.9997" y2="63.1434" gradientUnits="userSpaceOnUse">
<stop stop-color="#343B4E"/>
<stop offset="1" stop-color="#1E2433"/>
</linearGradient>
<clipPath id="clip0_8289_754">
<rect width="96" height="96" fill="white"/>
</clipPath>
</defs>
</svg>
