<svg id="logo-hor-color-black" xmlns="http://www.w3.org/2000/svg" xmlns:xlink="http://www.w3.org/1999/xlink" width="692.789" height="227.331" viewBox="0 0 692.789 227.331">
  <defs>
    <linearGradient id="linear-gradient" x1="0.553" y1="0.579" x2="0.052" y2="0.408" gradientUnits="objectBoundingBox">
      <stop offset="0" stop-color="#6000ff"/>
      <stop offset="0.651" stop-color="#4900c3"/>
      <stop offset="1" stop-color="#320086"/>
    </linearGradient>
    <linearGradient id="linear-gradient-2" x1="0.06" y1="-0.087" x2="0.485" y2="0.653" gradientUnits="objectBoundingBox">
      <stop offset="0" stop-color="#6a0aff"/>
      <stop offset="0.047" stop-color="#892aff"/>
      <stop offset="0.102" stop-color="#6a0aff"/>
      <stop offset="0.902" stop-color="#a94aff"/>
      <stop offset="1" stop-color="#a94aff"/>
    </linearGradient>
    <linearGradient id="linear-gradient-3" x1="0.036" y1="0.003" x2="0.984" y2="0.971" gradientUnits="objectBoundingBox">
      <stop offset="0" stop-color="#9335fe"/>
      <stop offset="0.031" stop-color="#a954fe"/>
      <stop offset="1" stop-color="#bf73ff"/>
    </linearGradient>
    <linearGradient id="linear-gradient-4" x1="1.07" y1="0.062" x2="0.095" y2="1.049" gradientUnits="objectBoundingBox">
      <stop offset="0" stop-color="#6a0aff"/>
      <stop offset="0.51" stop-color="#8c2dff"/>
      <stop offset="0.969" stop-color="#af50ff"/>
      <stop offset="1" stop-color="#af50ff"/>
    </linearGradient>
    <linearGradient id="linear-gradient-5" x1="0.45" y1="0.296" x2="0.539" y2="0.798" gradientUnits="objectBoundingBox">
      <stop offset="0" stop-color="#6000ff"/>
      <stop offset="1" stop-color="#3e00a5"/>
    </linearGradient>
    <linearGradient id="linear-gradient-6" x1="-0.526" y1="1.069" x2="1.091" y2="0.859" gradientUnits="objectBoundingBox">
      <stop offset="0" stop-color="#9838ff"/>
      <stop offset="0.322" stop-color="#af50ff"/>
      <stop offset="1" stop-color="#6000ff"/>
    </linearGradient>
    <linearGradient id="linear-gradient-7" x1="-0.111" y1="0.274" x2="0.872" y2="1.224" gradientUnits="objectBoundingBox">
      <stop offset="0" stop-color="#6f0fff"/>
      <stop offset="0.702" stop-color="#a94aff"/>
      <stop offset="1" stop-color="#a94aff"/>
    </linearGradient>
    <linearGradient id="linear-gradient-8" x1="0.015" y1="0.008" x2="0.986" y2="0.949" gradientUnits="objectBoundingBox">
      <stop offset="0" stop-color="#ae60ff"/>
      <stop offset="0.031" stop-color="#b669ff"/>
      <stop offset="1" stop-color="#bf73ff"/>
    </linearGradient>
  </defs>
  <path id="logotype" d="M407.392,201.184H392.047l-8.29-15.728h-37.5l-8.29,15.728H319.44l37.863-70.3h15.782q18.995,35.146,37.965,70.3ZM365,149.974l-11.253,21.217h22.429l-11.181-21.217Zm69.74,51.21H420.5v-70.3h17.054l30.053,42.044,29.783-42.044h16.958v70.3H497.923V156.008L474.2,189.979H460.744L436.923,156.4V201.19H434.74Zm150.554,0H535.163v-70.3h48.715c7.246,0,13.161,1.728,17.306,4.925a16.954,16.954,0,0,1,6.634,14.031,17.112,17.112,0,0,1-7.834,14.745,19.771,19.771,0,0,1,6.514,4.787A17.313,17.313,0,0,1,610.74,181.1c0,6.347-2.393,11.433-6.952,14.937-4.331,3.329-10.57,5.141-18.5,5.141Zm3.353-54.594c-1.536-1.206-3.935-1.83-7.12-1.83H552.157v13.9h29.465a10.75,10.75,0,0,0,6.9-2,6.378,6.378,0,0,0,2.219-5.135,5.938,5.938,0,0,0-2.088-4.937ZM590.7,174.7c-1.764-1.362-4.475-2.058-7.954-2.058H552.157V187.3h30.875c3.587,0,6.179-.666,7.816-1.914a6.186,6.186,0,0,0,2.243-5.231A6.522,6.522,0,0,0,590.7,174.7Zm51.042,26.484H626.66v-70.3h17.276v70.3h-2.183Zm38.085,0H664.745v-70.3h45.608c8.236,0,14.685,2.106,19.142,5.957,4.637,4,7.06,9.784,7.06,16.952,0,6.491-2.165,11.853-6.257,15.746a24.552,24.552,0,0,1-12.633,6.041l23.779,25.608H719.387l-22.321-24.2H682.021v24.2h-2.184ZM716.717,147.5c-1.818-1.5-4.673-2.267-8.53-2.267H682.021v17.39h26.166c3.785,0,6.653-.78,8.5-2.285,1.7-1.392,2.6-3.527,2.6-6.359,0-2.9-.864-5.081-2.561-6.479Zm101.707,53.682h-65.1v-70.3h66.627v14.355H770.309V158.2h44.366v14.259H770.309v14.373h50.3v14.355h-2.184Z" transform="translate(-127.818 -52.364)" fill="#1e2033" fill-rule="evenodd"/>
  <g id="symbol">
    <path id="Path_5759" data-name="Path 5759" d="M168.628,142.938l29.831,63.5a1.805,1.805,0,0,1-.366,1.98L119.62,284.242a.871.871,0,0,1-1.47-.66V213.92L167.6,166.183a1.611,1.611,0,0,0,.516-1.248l.144-22c0-.144.294-.144.366,0Z" transform="translate(-47.275 -57.146)" fill="#6000ff"/>
    <path id="Path_5760" data-name="Path 5760" d="M118.15,229.337V299a.871.871,0,0,0,1.47.66h0l78.474-75.823a1.8,1.8,0,0,0,.366-1.98h0l-30.635-40.5L118.15,229.337Z" transform="translate(-47.275 -72.563)" fill-rule="evenodd" fill="url(#linear-gradient)"/>
    <path id="Path_5761" data-name="Path 5761" d="M201.552,142.7h-.018a.168.168,0,0,0-.18.174h0l-.126,22a1.808,1.808,0,0,1-.288,1.026L231.7,207.407a1.948,1.948,0,0,0-.144-1.1h0l-29.831-63.5a.191.191,0,0,0-.18-.1Z" transform="translate(-80.402 -57.094)" fill-rule="evenodd" fill="url(#linear-gradient-2)"/>
    <path id="Path_5762" data-name="Path 5762" d="M232.583,224.039a1.948,1.948,0,0,0-.144-1.1h0l-1.542-3.3L203.13,184.28l29.459,39.759Z" transform="translate(-81.279 -73.731)" fill-rule="evenodd" fill="url(#linear-gradient-3)"/>
    <path id="Path_5763" data-name="Path 5763" d="M53.958,53.953,39.928,93.694A1.868,1.868,0,0,0,40,95.086l13.077,25.74-36,20.383a.939.939,0,0,1-1.248-.366L8.039,124.635a1.55,1.55,0,0,1,.15-1.686L53.6,53.731a.222.222,0,0,1,.366.222Z" transform="translate(-3.143 -21.471)" fill="#6000ff"/>
    <path id="Path_5764" data-name="Path 5764" d="M55.234,53.666h-.012a.182.182,0,0,0-.138.06h0L11.618,119.987l-.048.09L41.419,93.689l.1-.27h0l.006-.018L55.456,53.942a.218.218,0,0,0-.216-.282h0Z" transform="translate(-4.628 -21.465)" fill-rule="evenodd" fill="url(#linear-gradient-4)"/>
    <path id="Path_5765" data-name="Path 5765" d="M8.183,149.655a1.561,1.561,0,0,0-.144,1.686h0l7.786,16.208a.942.942,0,0,0,1.248.366h0l36-20.383L40,121.792a1.812,1.812,0,0,1-.072-1.392L8.189,149.661Z" transform="translate(-3.143 -48.17)" fill-rule="evenodd" fill="url(#linear-gradient-5)"/>
    <path id="Path_5766" data-name="Path 5766" d="M70.873.356V62.172a1.78,1.78,0,0,1-.366,1.026h0L.335,158.3a1.7,1.7,0,0,0,.222,2.273h0l49.231,47.515a.845.845,0,0,0,1.4-.294h0l53.49-125.167a1.989,1.989,0,0,0,0-1.32h0L71.539.206a.318.318,0,0,0-.3-.216h0a.357.357,0,0,0-.36.36h0Z" transform="translate(0.002 0.01)" fill-rule="evenodd" fill="url(#linear-gradient-6)"/>
    <path id="Path_5767" data-name="Path 5767" d="M118.434,0h-.024a.364.364,0,0,0-.354.36l.024,61.816a1.868,1.868,0,0,1-.09.516L151.444,80.3,118.722.216A.328.328,0,0,0,118.434,0Zm-.444,62.686,6.389,3.665-6.389-3.665Z" transform="translate(-47.211 0.006)" fill-rule="evenodd" fill="url(#linear-gradient-7)"/>
    <path id="Path_5768" data-name="Path 5768" d="M152.006,123.816V123.8a1.993,1.993,0,0,0-.1-.642h0l-.426-1.05L118,104.5l6.413,3.665,27.594,15.644Z" transform="translate(-47.215 -41.808)" fill-rule="evenodd" fill="url(#linear-gradient-8)"/>
    <path id="Path_5769" data-name="Path 5769" d="M10.288,146.8,8.44,149.615,40.161,120.39Z" transform="translate(-3.376 -48.166)" fill="#b46cf3"/>
  </g>
</svg>
